%TF.GenerationSoftware,KiCad,Pcbnew,7.0.9*%
%TF.CreationDate,2023-12-31T12:54:37+01:00*%
%TF.ProjectId,esp32promicro,65737033-3270-4726-9f6d-6963726f2e6b,rev?*%
%TF.SameCoordinates,Original*%
%TF.FileFunction,Copper,L2,Bot*%
%TF.FilePolarity,Positive*%
%FSLAX46Y46*%
G04 Gerber Fmt 4.6, Leading zero omitted, Abs format (unit mm)*
G04 Created by KiCad (PCBNEW 7.0.9) date 2023-12-31 12:54:37*
%MOMM*%
%LPD*%
G01*
G04 APERTURE LIST*
%TA.AperFunction,ComponentPad*%
%ADD10R,1.200000X1.200000*%
%TD*%
%TA.AperFunction,ComponentPad*%
%ADD11C,0.610000*%
%TD*%
%TA.AperFunction,ComponentPad*%
%ADD12C,0.650000*%
%TD*%
%TA.AperFunction,ComponentPad*%
%ADD13O,2.100000X1.000000*%
%TD*%
%TA.AperFunction,ComponentPad*%
%ADD14O,1.800000X1.000000*%
%TD*%
%TA.AperFunction,ComponentPad*%
%ADD15R,1.700000X1.700000*%
%TD*%
%TA.AperFunction,ComponentPad*%
%ADD16O,1.700000X1.700000*%
%TD*%
%TA.AperFunction,ViaPad*%
%ADD17C,0.600000*%
%TD*%
%TA.AperFunction,Conductor*%
%ADD18C,0.150000*%
%TD*%
%TA.AperFunction,Conductor*%
%ADD19C,0.200000*%
%TD*%
G04 APERTURE END LIST*
D10*
%TO.P,J3,1,Pin_1*%
%TO.N,+BATT*%
X103251000Y-66167000D03*
%TD*%
%TO.P,J4,1,Pin_1*%
%TO.N,GND*%
X103251000Y-67818000D03*
%TD*%
D11*
%TO.P,U1,*%
%TO.N,*%
X108079477Y-63645823D03*
X108079477Y-64645823D03*
X108079477Y-65645823D03*
X109079477Y-63645823D03*
X109079477Y-64645823D03*
X109079477Y-65645823D03*
X110079477Y-63645823D03*
%TD*%
D12*
%TO.P,U4,*%
%TO.N,*%
X126943480Y-65941270D03*
X126943480Y-60161270D03*
D13*
%TO.P,U4,13,GND*%
%TO.N,GND*%
X126443480Y-67371270D03*
%TO.P,U4,14,GND*%
X126443480Y-58731270D03*
D14*
%TO.P,U4,15,GND*%
X130623480Y-67371270D03*
%TO.P,U4,16,GND*%
X130623480Y-58731270D03*
%TD*%
D15*
%TO.P,J2,1,Pin_1*%
%TO.N,+5V*%
X128269480Y-70671269D03*
D16*
%TO.P,J2,2,Pin_2*%
%TO.N,GND*%
X125729480Y-70671269D03*
%TO.P,J2,3,Pin_3*%
%TO.N,RESET*%
X123189480Y-70671269D03*
%TO.P,J2,4,Pin_4*%
%TO.N,+5V*%
X120649480Y-70671269D03*
%TO.P,J2,5,Pin_5*%
%TO.N,21*%
X118109480Y-70671269D03*
%TO.P,J2,6,Pin_6*%
%TO.N,20*%
X115569480Y-70671269D03*
%TO.P,J2,7,Pin_7*%
%TO.N,19*%
X113029480Y-70671269D03*
%TO.P,J2,8,Pin_8*%
%TO.N,18*%
X110489480Y-70671269D03*
%TO.P,J2,9,Pin_9*%
%TO.N,SCLK15*%
X107949480Y-70671269D03*
%TO.P,J2,10,Pin_10*%
%TO.N,MISO14*%
X105409480Y-70671269D03*
%TO.P,J2,11,Pin_11*%
%TO.N,MOSI16*%
X102869480Y-70671269D03*
%TO.P,J2,12,Pin_12*%
%TO.N,10*%
X100329480Y-70671269D03*
%TD*%
D15*
%TO.P,J1,1,Pin_1*%
%TO.N,TXD*%
X128253479Y-55431270D03*
D16*
%TO.P,J1,2,Pin_2*%
%TO.N,RXD*%
X125713479Y-55431270D03*
%TO.P,J1,3,Pin_3*%
%TO.N,GND*%
X123173479Y-55431270D03*
%TO.P,J1,4,Pin_4*%
X120633479Y-55431270D03*
%TO.P,J1,5,Pin_5*%
%TO.N,SDA2*%
X118093479Y-55431270D03*
%TO.P,J1,6,Pin_6*%
%TO.N,SCL3*%
X115553479Y-55431270D03*
%TO.P,J1,7,Pin_7*%
%TO.N,4*%
X113013479Y-55431270D03*
%TO.P,J1,8,Pin_8*%
%TO.N,5*%
X110473479Y-55431270D03*
%TO.P,J1,9,Pin_9*%
%TO.N,6*%
X107933479Y-55431270D03*
%TO.P,J1,10,Pin_10*%
%TO.N,7*%
X105393479Y-55431270D03*
%TO.P,J1,11,Pin_11*%
%TO.N,8*%
X102853479Y-55431270D03*
%TO.P,J1,12,Pin_12*%
%TO.N,9*%
X100313479Y-55431270D03*
%TD*%
D17*
%TO.N,+BATT*%
X119888000Y-59627500D03*
%TO.N,GND*%
X121920000Y-56642000D03*
X123571000Y-59436000D03*
X100076000Y-62230000D03*
X101473000Y-60579000D03*
X123698000Y-65786000D03*
%TO.N,+5V*%
X128507500Y-64897000D03*
X131748480Y-60631120D03*
%TO.N,GND*%
X119253000Y-61087000D03*
X106680000Y-67056000D03*
X119380000Y-69977000D03*
X116645354Y-65015446D03*
X101068287Y-68147281D03*
X100203000Y-60071000D03*
X126619000Y-69088000D03*
X106807000Y-57658000D03*
X105410000Y-68326000D03*
X122936000Y-60960000D03*
X128524000Y-68326000D03*
X119337874Y-56726874D03*
X116763800Y-69977000D03*
X128905000Y-63627000D03*
X130302000Y-61214000D03*
%TO.N,+3V3*%
X106551773Y-62101773D03*
X118618000Y-64753500D03*
X116586000Y-61976000D03*
X118872000Y-65918190D03*
%TO.N,RESET*%
X107341734Y-62035769D03*
X114333369Y-59373500D03*
X125181708Y-58102834D03*
%TO.N,RXD*%
X108506148Y-62035769D03*
X124576878Y-56525122D03*
%TO.N,TXD*%
X109282611Y-62035769D03*
X127275978Y-57552978D03*
%TO.N,SDA2*%
X104884979Y-66970325D03*
X116811897Y-56740897D03*
%TO.N,SCL3*%
X113919000Y-57531000D03*
X104906459Y-67719519D03*
%TO.N,SCLK15*%
X113284000Y-62484000D03*
%TO.N,MISO14*%
X111709975Y-62405899D03*
%TO.N,MOSI16*%
X111528979Y-63754000D03*
%TO.N,SPICS*%
X117094000Y-65735200D03*
X113189515Y-66089377D03*
%TO.N,RGBLED*%
X105918000Y-61468000D03*
X107950000Y-67095325D03*
%TO.N,IO0*%
X117094000Y-62738000D03*
X106486891Y-63645825D03*
%TO.N,USBN*%
X126955493Y-62803546D03*
X111715995Y-67069547D03*
%TO.N,USBP*%
X112268000Y-68326000D03*
X127000000Y-63754000D03*
%TO.N,SPIWP*%
X111715995Y-66294000D03*
X118008400Y-64087500D03*
%TO.N,VBAT*%
X123127000Y-63563000D03*
X110051928Y-67180638D03*
%TO.N,CHRG*%
X123698000Y-60960000D03*
X109220000Y-67095325D03*
%TO.N,ANTENNA*%
X104640500Y-60579000D03*
X102870000Y-64897000D03*
%TD*%
D18*
%TO.N,SCL3*%
X104360479Y-61810750D02*
X108640229Y-57531000D01*
X104360479Y-67188288D02*
X104360479Y-61810750D01*
X104891710Y-67719519D02*
X104360479Y-67188288D01*
X108640229Y-57531000D02*
X113919000Y-57531000D01*
X104906459Y-67719519D02*
X104891710Y-67719519D01*
%TO.N,SDA2*%
X115640794Y-57912000D02*
X116811897Y-56740897D01*
X114300000Y-57912000D02*
X115640794Y-57912000D01*
X113719706Y-58492294D02*
X114300000Y-57912000D01*
X108103199Y-58492294D02*
X113719706Y-58492294D01*
X104902000Y-66953304D02*
X104902000Y-61693493D01*
X104884979Y-66970325D02*
X104902000Y-66953304D01*
X104902000Y-61693493D02*
X108103199Y-58492294D01*
%TO.N,ANTENNA*%
X102870000Y-62349500D02*
X104640500Y-60579000D01*
X102870000Y-64897000D02*
X102870000Y-62349500D01*
%TO.N,+BATT*%
X102501000Y-66421000D02*
X103251000Y-66421000D01*
X102218000Y-66138000D02*
X102501000Y-66421000D01*
X102218000Y-62247000D02*
X102218000Y-66138000D01*
X105802965Y-59944000D02*
X104521000Y-59944000D01*
X108850965Y-56896000D02*
X105802965Y-59944000D01*
X115914331Y-56896000D02*
X108850965Y-56896000D01*
X116594434Y-56215897D02*
X115914331Y-56896000D01*
X117048897Y-56215897D02*
X116594434Y-56215897D01*
X119888000Y-59055000D02*
X117048897Y-56215897D01*
X104521000Y-59944000D02*
X102218000Y-62247000D01*
X119888000Y-59627500D02*
X119888000Y-59055000D01*
%TO.N,RXD*%
X110389917Y-60152000D02*
X108506148Y-62035769D01*
X120950000Y-60152000D02*
X110389917Y-60152000D01*
X124576878Y-56525122D02*
X120950000Y-60152000D01*
%TO.N,TXD*%
X110514181Y-60452000D02*
X109282611Y-61683570D01*
X109282611Y-61683570D02*
X109282611Y-62035769D01*
X121158000Y-60452000D02*
X110514181Y-60452000D01*
X127251122Y-57577834D02*
X124032166Y-57577834D01*
X124032166Y-57577834D02*
X121158000Y-60452000D01*
X127275978Y-57552978D02*
X127251122Y-57577834D01*
%TO.N,+3V3*%
X115432000Y-60822000D02*
X116586000Y-61976000D01*
X111263000Y-60822000D02*
X115432000Y-60822000D01*
X109524731Y-62560269D02*
X111263000Y-60822000D01*
X107010269Y-62560269D02*
X109524731Y-62560269D01*
X106551773Y-62101773D02*
X107010269Y-62560269D01*
%TO.N,IO0*%
X107272447Y-62860269D02*
X106486891Y-63645825D01*
X111402883Y-61122000D02*
X109664614Y-62860269D01*
X114563600Y-61122000D02*
X111402883Y-61122000D01*
X116179600Y-62738000D02*
X114563600Y-61122000D01*
X117094000Y-62738000D02*
X116179600Y-62738000D01*
X109664614Y-62860269D02*
X107272447Y-62860269D01*
%TO.N,CHRG*%
X123698000Y-61468000D02*
X123698000Y-60960000D01*
X121903000Y-63263000D02*
X123698000Y-61468000D01*
X116095000Y-63263000D02*
X121903000Y-63263000D01*
X110609477Y-62339670D02*
X111527147Y-61422000D01*
X110609477Y-64548923D02*
X110609477Y-62339670D01*
X114254000Y-61422000D02*
X116095000Y-63263000D01*
X109991495Y-65166905D02*
X110609477Y-64548923D01*
X111527147Y-61422000D02*
X114254000Y-61422000D01*
X109991495Y-65776505D02*
X109991495Y-65166905D01*
X109220000Y-67095325D02*
X109220000Y-66548000D01*
X109220000Y-66548000D02*
X109991495Y-65776505D01*
%TO.N,VBAT*%
X110051928Y-66140336D02*
X110051928Y-67180638D01*
X110291495Y-65900769D02*
X110051928Y-66140336D01*
X110909477Y-64690229D02*
X110291495Y-65308211D01*
X114129736Y-61722000D02*
X111651411Y-61722000D01*
X110291495Y-65308211D02*
X110291495Y-65900769D01*
X115970736Y-63563000D02*
X114129736Y-61722000D01*
X110909477Y-62463934D02*
X110909477Y-64690229D01*
X123127000Y-63563000D02*
X115970736Y-63563000D01*
X111651411Y-61722000D02*
X110909477Y-62463934D01*
%TO.N,RESET*%
X114268869Y-59309000D02*
X114333369Y-59373500D01*
X110116536Y-59309000D02*
X114268869Y-59309000D01*
X107389767Y-62035769D02*
X110116536Y-59309000D01*
X107341734Y-62035769D02*
X107389767Y-62035769D01*
X127889000Y-67691000D02*
X127127000Y-68453000D01*
X125407749Y-68453000D02*
X123189480Y-70671269D01*
X127889000Y-62230000D02*
X127889000Y-67691000D01*
X125168480Y-59509480D02*
X127889000Y-62230000D01*
X127127000Y-68453000D02*
X125407749Y-68453000D01*
X125168480Y-58116062D02*
X125168480Y-59509480D01*
X125181708Y-58102834D02*
X125168480Y-58116062D01*
%TO.N,+5V*%
X131748480Y-61799520D02*
X131748480Y-60631120D01*
X128507500Y-64897000D02*
X128651000Y-64897000D01*
X128651000Y-64897000D02*
X131748480Y-61799520D01*
D19*
%TO.N,USBN*%
X120172078Y-67462400D02*
X116636800Y-67462400D01*
X116636800Y-67462400D02*
X116243947Y-67069547D01*
X126955493Y-62803546D02*
X124830932Y-62803546D01*
X124830932Y-62803546D02*
X120172078Y-67462400D01*
X116243947Y-67069547D02*
X111715995Y-67069547D01*
%TO.N,USBP*%
X124375452Y-63754000D02*
X119657682Y-68471770D01*
X127000000Y-63754000D02*
X124375452Y-63754000D01*
X119657682Y-68471770D02*
X112413770Y-68471770D01*
X112413770Y-68471770D02*
X112268000Y-68326000D01*
D18*
%TO.N,+3V3*%
X118872000Y-65918190D02*
X118618000Y-65664190D01*
X118618000Y-65664190D02*
X118618000Y-64753500D01*
%TO.N,RXD*%
X108506148Y-62035769D02*
X108409279Y-62035769D01*
X108409279Y-62035769D02*
X108404741Y-62031231D01*
%TO.N,SCLK15*%
X107916781Y-70671269D02*
X107912741Y-70667229D01*
X111191495Y-65681006D02*
X111191495Y-68132505D01*
X113284000Y-62484000D02*
X112722742Y-63045258D01*
X111191495Y-68132505D02*
X108652731Y-70671269D01*
X108652731Y-70671269D02*
X107916781Y-70671269D01*
X112722742Y-63045258D02*
X112722742Y-64149759D01*
X112722742Y-64149759D02*
X111191495Y-65681006D01*
%TO.N,MISO14*%
X105372743Y-70649257D02*
X105372743Y-70667230D01*
X112239843Y-64208394D02*
X110891495Y-65556742D01*
X112239843Y-63245007D02*
X112239843Y-64208394D01*
X110891495Y-65556742D02*
X110891495Y-68008241D01*
X109456136Y-69443600D02*
X106578400Y-69443600D01*
X111709975Y-62405899D02*
X111709975Y-62715139D01*
X110891495Y-68008241D02*
X109456136Y-69443600D01*
X106578400Y-69443600D02*
X105372743Y-70649257D01*
X111709975Y-62715139D02*
X112239843Y-63245007D01*
%TO.N,MOSI16*%
X110591495Y-65432475D02*
X110591495Y-67883977D01*
X110591495Y-67883977D02*
X109331872Y-69143600D01*
X104356371Y-69143600D02*
X102832741Y-70667230D01*
X111528979Y-63754000D02*
X111528979Y-64494991D01*
X109331872Y-69143600D02*
X104356371Y-69143600D01*
X111528979Y-64494991D02*
X110591495Y-65432475D01*
%TO.N,SPICS*%
X113189515Y-66089377D02*
X113543692Y-65735200D01*
X113543692Y-65735200D02*
X117094000Y-65735200D01*
%TO.N,RGBLED*%
X105918000Y-64770000D02*
X105918000Y-61468000D01*
X107950000Y-66802000D02*
X105918000Y-64770000D01*
X107950000Y-67095325D02*
X107950000Y-66802000D01*
%TO.N,SPIWP*%
X111715995Y-66294000D02*
X112166542Y-66744547D01*
X112166542Y-66744547D02*
X116897453Y-66744547D01*
X116897453Y-66744547D02*
X118008400Y-65633600D01*
X118008400Y-65633600D02*
X118008400Y-64087500D01*
%TD*%
%TA.AperFunction,Conductor*%
%TO.N,GND*%
G36*
X120118176Y-54019807D02*
G01*
X120154140Y-54069307D01*
X120154140Y-54130493D01*
X120118176Y-54179993D01*
X120101824Y-54189624D01*
X119955911Y-54257664D01*
X119955903Y-54257668D01*
X119762405Y-54393156D01*
X119595365Y-54560196D01*
X119459877Y-54753694D01*
X119459873Y-54753702D01*
X119360049Y-54967775D01*
X119304662Y-55174483D01*
X119271338Y-55225797D01*
X119214216Y-55247724D01*
X119155116Y-55231888D01*
X119116611Y-55184338D01*
X119114298Y-55177598D01*
X119090902Y-55100472D01*
X119068711Y-55027316D01*
X118971164Y-54844820D01*
X118839889Y-54684860D01*
X118689602Y-54561523D01*
X118679931Y-54553586D01*
X118497433Y-54456038D01*
X118299413Y-54395969D01*
X118299408Y-54395968D01*
X118093482Y-54375687D01*
X118093476Y-54375687D01*
X117887549Y-54395968D01*
X117887544Y-54395969D01*
X117689524Y-54456038D01*
X117507026Y-54553586D01*
X117347074Y-54684855D01*
X117347064Y-54684865D01*
X117215795Y-54844817D01*
X117118247Y-55027315D01*
X117058178Y-55225335D01*
X117058177Y-55225340D01*
X117037896Y-55431266D01*
X117037896Y-55431273D01*
X117058177Y-55637199D01*
X117058178Y-55637204D01*
X117111137Y-55811786D01*
X117109936Y-55872960D01*
X117073007Y-55921744D01*
X117035722Y-55937620D01*
X117031335Y-55938493D01*
X117012013Y-55940397D01*
X116631318Y-55940397D01*
X116611941Y-55938482D01*
X116610974Y-55938289D01*
X116557610Y-55908358D01*
X116532030Y-55852776D01*
X116535614Y-55812466D01*
X116535821Y-55811786D01*
X116588779Y-55637204D01*
X116588780Y-55637199D01*
X116609062Y-55431273D01*
X116609062Y-55431266D01*
X116588780Y-55225340D01*
X116588779Y-55225335D01*
X116550902Y-55100472D01*
X116528711Y-55027316D01*
X116431164Y-54844820D01*
X116299889Y-54684860D01*
X116149602Y-54561523D01*
X116139931Y-54553586D01*
X115957433Y-54456038D01*
X115759413Y-54395969D01*
X115759408Y-54395968D01*
X115553482Y-54375687D01*
X115553476Y-54375687D01*
X115347549Y-54395968D01*
X115347544Y-54395969D01*
X115149524Y-54456038D01*
X114967026Y-54553586D01*
X114807074Y-54684855D01*
X114807064Y-54684865D01*
X114675795Y-54844817D01*
X114578247Y-55027315D01*
X114518178Y-55225335D01*
X114518177Y-55225340D01*
X114497896Y-55431266D01*
X114497896Y-55431273D01*
X114518177Y-55637199D01*
X114518178Y-55637204D01*
X114578247Y-55835224D01*
X114675795Y-56017722D01*
X114778591Y-56142979D01*
X114807069Y-56177680D01*
X114807074Y-56177684D01*
X114967026Y-56308953D01*
X114967027Y-56308953D01*
X114967029Y-56308955D01*
X115149525Y-56406502D01*
X115216318Y-56426763D01*
X115266515Y-56461748D01*
X115286561Y-56519556D01*
X115268800Y-56578107D01*
X115220016Y-56615036D01*
X115187580Y-56620500D01*
X113379378Y-56620500D01*
X113321187Y-56601593D01*
X113285223Y-56552093D01*
X113285223Y-56490907D01*
X113321187Y-56441407D01*
X113350638Y-56426763D01*
X113417433Y-56406502D01*
X113599929Y-56308955D01*
X113759889Y-56177680D01*
X113891164Y-56017720D01*
X113988711Y-55835224D01*
X114048779Y-55637204D01*
X114048780Y-55637199D01*
X114069062Y-55431273D01*
X114069062Y-55431266D01*
X114048780Y-55225340D01*
X114048779Y-55225335D01*
X114010902Y-55100472D01*
X113988711Y-55027316D01*
X113891164Y-54844820D01*
X113759889Y-54684860D01*
X113609602Y-54561523D01*
X113599931Y-54553586D01*
X113417433Y-54456038D01*
X113219413Y-54395969D01*
X113219408Y-54395968D01*
X113013482Y-54375687D01*
X113013476Y-54375687D01*
X112807549Y-54395968D01*
X112807544Y-54395969D01*
X112609524Y-54456038D01*
X112427026Y-54553586D01*
X112267074Y-54684855D01*
X112267064Y-54684865D01*
X112135795Y-54844817D01*
X112038247Y-55027315D01*
X111978178Y-55225335D01*
X111978177Y-55225340D01*
X111957896Y-55431266D01*
X111957896Y-55431273D01*
X111978177Y-55637199D01*
X111978178Y-55637204D01*
X112038247Y-55835224D01*
X112135795Y-56017722D01*
X112238591Y-56142979D01*
X112267069Y-56177680D01*
X112267074Y-56177684D01*
X112427026Y-56308953D01*
X112427027Y-56308953D01*
X112427029Y-56308955D01*
X112609525Y-56406502D01*
X112676318Y-56426763D01*
X112726515Y-56461748D01*
X112746561Y-56519556D01*
X112728800Y-56578107D01*
X112680016Y-56615036D01*
X112647580Y-56620500D01*
X110839378Y-56620500D01*
X110781187Y-56601593D01*
X110745223Y-56552093D01*
X110745223Y-56490907D01*
X110781187Y-56441407D01*
X110810638Y-56426763D01*
X110877433Y-56406502D01*
X111059929Y-56308955D01*
X111219889Y-56177680D01*
X111351164Y-56017720D01*
X111448711Y-55835224D01*
X111508779Y-55637204D01*
X111508780Y-55637199D01*
X111529062Y-55431273D01*
X111529062Y-55431266D01*
X111508780Y-55225340D01*
X111508779Y-55225335D01*
X111470902Y-55100472D01*
X111448711Y-55027316D01*
X111351164Y-54844820D01*
X111219889Y-54684860D01*
X111069602Y-54561523D01*
X111059931Y-54553586D01*
X110877433Y-54456038D01*
X110679413Y-54395969D01*
X110679408Y-54395968D01*
X110473482Y-54375687D01*
X110473476Y-54375687D01*
X110267549Y-54395968D01*
X110267544Y-54395969D01*
X110069524Y-54456038D01*
X109887026Y-54553586D01*
X109727074Y-54684855D01*
X109727064Y-54684865D01*
X109595795Y-54844817D01*
X109498247Y-55027315D01*
X109438178Y-55225335D01*
X109438177Y-55225340D01*
X109417896Y-55431266D01*
X109417896Y-55431273D01*
X109438177Y-55637199D01*
X109438178Y-55637204D01*
X109498247Y-55835224D01*
X109595795Y-56017722D01*
X109698591Y-56142979D01*
X109727069Y-56177680D01*
X109727074Y-56177684D01*
X109887026Y-56308953D01*
X109887027Y-56308953D01*
X109887029Y-56308955D01*
X110069525Y-56406502D01*
X110136318Y-56426763D01*
X110186515Y-56461748D01*
X110206561Y-56519556D01*
X110188800Y-56578107D01*
X110140016Y-56615036D01*
X110107580Y-56620500D01*
X108887849Y-56620500D01*
X108868535Y-56618598D01*
X108865926Y-56618079D01*
X108850965Y-56615103D01*
X108850964Y-56615103D01*
X108850962Y-56615103D01*
X108831656Y-56618942D01*
X108831647Y-56618945D01*
X108743471Y-56636484D01*
X108701497Y-56664529D01*
X108677926Y-56680278D01*
X108677923Y-56680282D01*
X108652342Y-56697375D01*
X108652337Y-56697380D01*
X108642388Y-56712269D01*
X108630080Y-56727267D01*
X105717845Y-59639504D01*
X105663328Y-59667281D01*
X105647841Y-59668500D01*
X104557884Y-59668500D01*
X104538570Y-59666598D01*
X104521000Y-59663103D01*
X104520999Y-59663103D01*
X104520997Y-59663103D01*
X104501695Y-59666941D01*
X104501683Y-59666945D01*
X104477627Y-59671730D01*
X104413505Y-59684485D01*
X104413504Y-59684486D01*
X104413502Y-59684486D01*
X104387965Y-59701551D01*
X104347958Y-59728281D01*
X104347958Y-59728282D01*
X104345378Y-59730006D01*
X104345376Y-59730007D01*
X104343486Y-59731270D01*
X104322377Y-59745375D01*
X104322372Y-59745380D01*
X104312423Y-59760269D01*
X104300115Y-59775267D01*
X102049267Y-62026115D01*
X102034269Y-62038423D01*
X102019380Y-62048372D01*
X102019374Y-62048378D01*
X102004005Y-62071379D01*
X101990463Y-62091647D01*
X101958486Y-62139501D01*
X101958486Y-62139503D01*
X101958485Y-62139505D01*
X101944338Y-62210627D01*
X101937103Y-62247000D01*
X101939118Y-62257132D01*
X101940598Y-62264569D01*
X101942500Y-62283883D01*
X101942500Y-66101115D01*
X101940598Y-66120427D01*
X101937103Y-66137999D01*
X101937103Y-66138002D01*
X101941311Y-66159162D01*
X101941316Y-66159182D01*
X101942500Y-66165132D01*
X101942500Y-66165133D01*
X101958485Y-66245495D01*
X101958486Y-66245496D01*
X101958487Y-66245498D01*
X101972922Y-66267102D01*
X101991818Y-66295381D01*
X101997467Y-66303836D01*
X102019376Y-66336624D01*
X102033995Y-66346392D01*
X102034266Y-66346573D01*
X102049269Y-66358885D01*
X102280115Y-66589731D01*
X102292426Y-66604733D01*
X102302376Y-66619624D01*
X102323504Y-66633741D01*
X102323515Y-66633749D01*
X102351759Y-66652621D01*
X102389639Y-66700671D01*
X102392041Y-66761809D01*
X102358049Y-66812683D01*
X102356088Y-66814190D01*
X102293812Y-66860810D01*
X102293807Y-66860815D01*
X102207647Y-66975909D01*
X102207646Y-66975911D01*
X102157403Y-67110618D01*
X102157401Y-67110629D01*
X102151000Y-67170175D01*
X102151000Y-67567999D01*
X102151001Y-67568000D01*
X102817314Y-67568000D01*
X102791507Y-67608156D01*
X102751000Y-67746111D01*
X102751000Y-67889889D01*
X102791507Y-68027844D01*
X102817314Y-68068000D01*
X102151001Y-68068000D01*
X102151000Y-68068001D01*
X102151000Y-68465824D01*
X102150999Y-68465824D01*
X102157401Y-68525370D01*
X102157403Y-68525381D01*
X102207646Y-68660088D01*
X102207647Y-68660090D01*
X102293807Y-68775184D01*
X102293815Y-68775192D01*
X102408909Y-68861352D01*
X102408911Y-68861353D01*
X102543618Y-68911596D01*
X102543629Y-68911598D01*
X102603176Y-68918000D01*
X103000999Y-68918000D01*
X103001000Y-68917999D01*
X103001000Y-68253501D01*
X103108685Y-68302680D01*
X103215237Y-68318000D01*
X103286763Y-68318000D01*
X103393315Y-68302680D01*
X103501000Y-68253501D01*
X103501000Y-68917999D01*
X103501001Y-68918000D01*
X103898824Y-68918000D01*
X103948691Y-68912639D01*
X104008569Y-68925218D01*
X104049618Y-68970590D01*
X104056158Y-69031425D01*
X104029277Y-69081076D01*
X103417161Y-69693192D01*
X103362644Y-69720969D01*
X103302212Y-69711398D01*
X103300525Y-69710517D01*
X103273434Y-69696037D01*
X103264055Y-69693192D01*
X103075414Y-69635968D01*
X103075409Y-69635967D01*
X102869483Y-69615686D01*
X102869477Y-69615686D01*
X102663550Y-69635967D01*
X102663545Y-69635968D01*
X102465525Y-69696037D01*
X102283027Y-69793585D01*
X102123075Y-69924854D01*
X102123065Y-69924864D01*
X101991796Y-70084816D01*
X101894248Y-70267314D01*
X101834179Y-70465334D01*
X101834178Y-70465339D01*
X101813897Y-70671265D01*
X101813897Y-70671272D01*
X101834178Y-70877198D01*
X101834179Y-70877203D01*
X101894248Y-71075223D01*
X101991796Y-71257721D01*
X102123065Y-71417673D01*
X102123070Y-71417679D01*
X102123075Y-71417683D01*
X102283027Y-71548952D01*
X102283028Y-71548952D01*
X102283030Y-71548954D01*
X102465526Y-71646501D01*
X102603477Y-71688347D01*
X102663545Y-71706569D01*
X102663550Y-71706570D01*
X102869477Y-71726852D01*
X102869480Y-71726852D01*
X102869483Y-71726852D01*
X103075409Y-71706570D01*
X103075414Y-71706569D01*
X103273434Y-71646501D01*
X103455930Y-71548954D01*
X103615890Y-71417679D01*
X103747165Y-71257719D01*
X103844712Y-71075223D01*
X103904780Y-70877203D01*
X103904781Y-70877198D01*
X103925063Y-70671272D01*
X103925063Y-70671265D01*
X103904781Y-70465339D01*
X103904780Y-70465334D01*
X103866903Y-70340471D01*
X103844712Y-70267315D01*
X103801840Y-70187110D01*
X103791085Y-70126879D01*
X103817786Y-70071827D01*
X103819148Y-70070438D01*
X104441492Y-69448096D01*
X104496008Y-69420319D01*
X104511495Y-69419100D01*
X105390259Y-69419100D01*
X105407757Y-69424785D01*
X105428701Y-69419100D01*
X105974276Y-69419100D01*
X106032467Y-69438007D01*
X106068431Y-69487507D01*
X106068431Y-69548693D01*
X106044279Y-69588104D01*
X105945450Y-69686932D01*
X105890934Y-69714709D01*
X105830501Y-69705137D01*
X105828781Y-69704239D01*
X105813440Y-69696039D01*
X105813434Y-69696037D01*
X105615414Y-69635968D01*
X105615409Y-69635967D01*
X105418997Y-69616623D01*
X105410147Y-69612751D01*
X105399963Y-69616623D01*
X105203550Y-69635967D01*
X105203545Y-69635968D01*
X105005525Y-69696037D01*
X104823027Y-69793585D01*
X104663075Y-69924854D01*
X104663065Y-69924864D01*
X104531796Y-70084816D01*
X104434248Y-70267314D01*
X104374179Y-70465334D01*
X104374178Y-70465339D01*
X104353897Y-70671265D01*
X104353897Y-70671272D01*
X104374178Y-70877198D01*
X104374179Y-70877203D01*
X104434248Y-71075223D01*
X104531796Y-71257721D01*
X104663065Y-71417673D01*
X104663070Y-71417679D01*
X104663075Y-71417683D01*
X104823027Y-71548952D01*
X104823028Y-71548952D01*
X104823030Y-71548954D01*
X105005526Y-71646501D01*
X105143477Y-71688347D01*
X105203545Y-71706569D01*
X105203550Y-71706570D01*
X105409477Y-71726852D01*
X105409480Y-71726852D01*
X105409483Y-71726852D01*
X105615409Y-71706570D01*
X105615414Y-71706569D01*
X105813434Y-71646501D01*
X105995930Y-71548954D01*
X106155890Y-71417679D01*
X106287165Y-71257719D01*
X106384712Y-71075223D01*
X106444780Y-70877203D01*
X106444781Y-70877198D01*
X106465063Y-70671272D01*
X106465063Y-70671265D01*
X106444781Y-70465339D01*
X106444780Y-70465334D01*
X106406903Y-70340471D01*
X106384712Y-70267315D01*
X106335581Y-70175399D01*
X106324825Y-70115166D01*
X106351526Y-70060115D01*
X106352830Y-70058784D01*
X106663520Y-69748096D01*
X106718036Y-69720319D01*
X106733523Y-69719100D01*
X107177102Y-69719100D01*
X107235293Y-69738007D01*
X107271257Y-69787507D01*
X107271257Y-69848693D01*
X107239907Y-69894628D01*
X107203075Y-69924854D01*
X107203065Y-69924864D01*
X107071796Y-70084816D01*
X106974248Y-70267314D01*
X106914179Y-70465334D01*
X106914178Y-70465339D01*
X106893897Y-70671265D01*
X106893897Y-70671272D01*
X106914178Y-70877198D01*
X106914179Y-70877203D01*
X106974248Y-71075223D01*
X107071796Y-71257721D01*
X107203065Y-71417673D01*
X107203070Y-71417679D01*
X107203075Y-71417683D01*
X107363027Y-71548952D01*
X107363028Y-71548952D01*
X107363030Y-71548954D01*
X107545526Y-71646501D01*
X107683477Y-71688347D01*
X107743545Y-71706569D01*
X107743550Y-71706570D01*
X107949477Y-71726852D01*
X107949480Y-71726852D01*
X107949483Y-71726852D01*
X108155409Y-71706570D01*
X108155414Y-71706569D01*
X108353434Y-71646501D01*
X108535930Y-71548954D01*
X108695890Y-71417679D01*
X108827165Y-71257719D01*
X108924712Y-71075223D01*
X108984780Y-70877203D01*
X108984781Y-70877197D01*
X108997517Y-70747879D01*
X109022036Y-70691822D01*
X109026019Y-70687595D01*
X109281029Y-70432585D01*
X109335544Y-70404810D01*
X109395976Y-70414381D01*
X109439241Y-70457646D01*
X109449554Y-70512295D01*
X109433897Y-70671265D01*
X109433897Y-70671272D01*
X109454178Y-70877198D01*
X109454179Y-70877203D01*
X109514248Y-71075223D01*
X109611796Y-71257721D01*
X109743065Y-71417673D01*
X109743070Y-71417679D01*
X109743075Y-71417683D01*
X109903027Y-71548952D01*
X109903028Y-71548952D01*
X109903030Y-71548954D01*
X110085526Y-71646501D01*
X110223477Y-71688347D01*
X110283545Y-71706569D01*
X110283550Y-71706570D01*
X110489477Y-71726852D01*
X110489480Y-71726852D01*
X110489483Y-71726852D01*
X110695409Y-71706570D01*
X110695414Y-71706569D01*
X110893434Y-71646501D01*
X111075930Y-71548954D01*
X111235890Y-71417679D01*
X111367165Y-71257719D01*
X111464712Y-71075223D01*
X111524780Y-70877203D01*
X111524781Y-70877198D01*
X111545063Y-70671272D01*
X111973897Y-70671272D01*
X111994178Y-70877198D01*
X111994179Y-70877203D01*
X112054248Y-71075223D01*
X112151796Y-71257721D01*
X112283065Y-71417673D01*
X112283070Y-71417679D01*
X112283075Y-71417683D01*
X112443027Y-71548952D01*
X112443028Y-71548952D01*
X112443030Y-71548954D01*
X112625526Y-71646501D01*
X112763477Y-71688347D01*
X112823545Y-71706569D01*
X112823550Y-71706570D01*
X113029477Y-71726852D01*
X113029480Y-71726852D01*
X113029483Y-71726852D01*
X113235409Y-71706570D01*
X113235414Y-71706569D01*
X113433434Y-71646501D01*
X113615930Y-71548954D01*
X113775890Y-71417679D01*
X113907165Y-71257719D01*
X114004712Y-71075223D01*
X114064780Y-70877203D01*
X114064781Y-70877198D01*
X114085063Y-70671272D01*
X114513897Y-70671272D01*
X114534178Y-70877198D01*
X114534179Y-70877203D01*
X114594248Y-71075223D01*
X114691796Y-71257721D01*
X114823065Y-71417673D01*
X114823070Y-71417679D01*
X114823075Y-71417683D01*
X114983027Y-71548952D01*
X114983028Y-71548952D01*
X114983030Y-71548954D01*
X115165526Y-71646501D01*
X115303477Y-71688347D01*
X115363545Y-71706569D01*
X115363550Y-71706570D01*
X115569477Y-71726852D01*
X115569480Y-71726852D01*
X115569483Y-71726852D01*
X115775409Y-71706570D01*
X115775414Y-71706569D01*
X115973434Y-71646501D01*
X116155930Y-71548954D01*
X116315890Y-71417679D01*
X116447165Y-71257719D01*
X116544712Y-71075223D01*
X116604780Y-70877203D01*
X116604781Y-70877198D01*
X116625063Y-70671272D01*
X117053897Y-70671272D01*
X117074178Y-70877198D01*
X117074179Y-70877203D01*
X117134248Y-71075223D01*
X117231796Y-71257721D01*
X117363065Y-71417673D01*
X117363070Y-71417679D01*
X117363075Y-71417683D01*
X117523027Y-71548952D01*
X117523028Y-71548952D01*
X117523030Y-71548954D01*
X117705526Y-71646501D01*
X117843477Y-71688347D01*
X117903545Y-71706569D01*
X117903550Y-71706570D01*
X118109477Y-71726852D01*
X118109480Y-71726852D01*
X118109483Y-71726852D01*
X118315409Y-71706570D01*
X118315414Y-71706569D01*
X118513434Y-71646501D01*
X118695930Y-71548954D01*
X118855890Y-71417679D01*
X118987165Y-71257719D01*
X119084712Y-71075223D01*
X119144780Y-70877203D01*
X119144781Y-70877198D01*
X119165063Y-70671272D01*
X119593897Y-70671272D01*
X119614178Y-70877198D01*
X119614179Y-70877203D01*
X119674248Y-71075223D01*
X119771796Y-71257721D01*
X119903065Y-71417673D01*
X119903070Y-71417679D01*
X119903075Y-71417683D01*
X120063027Y-71548952D01*
X120063028Y-71548952D01*
X120063030Y-71548954D01*
X120245526Y-71646501D01*
X120383477Y-71688347D01*
X120443545Y-71706569D01*
X120443550Y-71706570D01*
X120649477Y-71726852D01*
X120649480Y-71726852D01*
X120649483Y-71726852D01*
X120855409Y-71706570D01*
X120855414Y-71706569D01*
X121053434Y-71646501D01*
X121235930Y-71548954D01*
X121395890Y-71417679D01*
X121527165Y-71257719D01*
X121624712Y-71075223D01*
X121684780Y-70877203D01*
X121684781Y-70877198D01*
X121705063Y-70671272D01*
X121705063Y-70671265D01*
X121684781Y-70465339D01*
X121684780Y-70465334D01*
X121646903Y-70340471D01*
X121624712Y-70267315D01*
X121527165Y-70084819D01*
X121505751Y-70058726D01*
X121395894Y-69924864D01*
X121395890Y-69924859D01*
X121303081Y-69848693D01*
X121235932Y-69793585D01*
X121053434Y-69696037D01*
X120855414Y-69635968D01*
X120855409Y-69635967D01*
X120649483Y-69615686D01*
X120649477Y-69615686D01*
X120443550Y-69635967D01*
X120443545Y-69635968D01*
X120245525Y-69696037D01*
X120063027Y-69793585D01*
X119903075Y-69924854D01*
X119903065Y-69924864D01*
X119771796Y-70084816D01*
X119674248Y-70267314D01*
X119614179Y-70465334D01*
X119614178Y-70465339D01*
X119593897Y-70671265D01*
X119593897Y-70671272D01*
X119165063Y-70671272D01*
X119165063Y-70671265D01*
X119144781Y-70465339D01*
X119144780Y-70465334D01*
X119106903Y-70340471D01*
X119084712Y-70267315D01*
X118987165Y-70084819D01*
X118965751Y-70058726D01*
X118855894Y-69924864D01*
X118855890Y-69924859D01*
X118763081Y-69848693D01*
X118695932Y-69793585D01*
X118513434Y-69696037D01*
X118315414Y-69635968D01*
X118315409Y-69635967D01*
X118109483Y-69615686D01*
X118109477Y-69615686D01*
X117903550Y-69635967D01*
X117903545Y-69635968D01*
X117705525Y-69696037D01*
X117523027Y-69793585D01*
X117363075Y-69924854D01*
X117363065Y-69924864D01*
X117231796Y-70084816D01*
X117134248Y-70267314D01*
X117074179Y-70465334D01*
X117074178Y-70465339D01*
X117053897Y-70671265D01*
X117053897Y-70671272D01*
X116625063Y-70671272D01*
X116625063Y-70671265D01*
X116604781Y-70465339D01*
X116604780Y-70465334D01*
X116566903Y-70340471D01*
X116544712Y-70267315D01*
X116447165Y-70084819D01*
X116425751Y-70058726D01*
X116315894Y-69924864D01*
X116315890Y-69924859D01*
X116223081Y-69848693D01*
X116155932Y-69793585D01*
X115973434Y-69696037D01*
X115775414Y-69635968D01*
X115775409Y-69635967D01*
X115569483Y-69615686D01*
X115569477Y-69615686D01*
X115363550Y-69635967D01*
X115363545Y-69635968D01*
X115165525Y-69696037D01*
X114983027Y-69793585D01*
X114823075Y-69924854D01*
X114823065Y-69924864D01*
X114691796Y-70084816D01*
X114594248Y-70267314D01*
X114534179Y-70465334D01*
X114534178Y-70465339D01*
X114513897Y-70671265D01*
X114513897Y-70671272D01*
X114085063Y-70671272D01*
X114085063Y-70671265D01*
X114064781Y-70465339D01*
X114064780Y-70465334D01*
X114026903Y-70340471D01*
X114004712Y-70267315D01*
X113907165Y-70084819D01*
X113885751Y-70058726D01*
X113775894Y-69924864D01*
X113775890Y-69924859D01*
X113683081Y-69848693D01*
X113615932Y-69793585D01*
X113433434Y-69696037D01*
X113235414Y-69635968D01*
X113235409Y-69635967D01*
X113029483Y-69615686D01*
X113029477Y-69615686D01*
X112823550Y-69635967D01*
X112823545Y-69635968D01*
X112625525Y-69696037D01*
X112443027Y-69793585D01*
X112283075Y-69924854D01*
X112283065Y-69924864D01*
X112151796Y-70084816D01*
X112054248Y-70267314D01*
X111994179Y-70465334D01*
X111994178Y-70465339D01*
X111973897Y-70671265D01*
X111973897Y-70671272D01*
X111545063Y-70671272D01*
X111545063Y-70671265D01*
X111524781Y-70465339D01*
X111524780Y-70465334D01*
X111486903Y-70340471D01*
X111464712Y-70267315D01*
X111367165Y-70084819D01*
X111345751Y-70058726D01*
X111235894Y-69924864D01*
X111235890Y-69924859D01*
X111143081Y-69848693D01*
X111075932Y-69793585D01*
X110893434Y-69696037D01*
X110695414Y-69635968D01*
X110695409Y-69635967D01*
X110489483Y-69615686D01*
X110489477Y-69615686D01*
X110330506Y-69631343D01*
X110270742Y-69618231D01*
X110230099Y-69572494D01*
X110224102Y-69511603D01*
X110250796Y-69462818D01*
X111360228Y-68353386D01*
X111375224Y-68341080D01*
X111390119Y-68331129D01*
X111451010Y-68240000D01*
X111466995Y-68159638D01*
X111466995Y-68159633D01*
X111472391Y-68132505D01*
X111468897Y-68114937D01*
X111466995Y-68095625D01*
X111466995Y-67650312D01*
X111485902Y-67592121D01*
X111535402Y-67556157D01*
X111593884Y-67555322D01*
X111644034Y-67570047D01*
X111644036Y-67570047D01*
X111787954Y-67570047D01*
X111787956Y-67570047D01*
X111926048Y-67529500D01*
X112047123Y-67451690D01*
X112088259Y-67404215D01*
X112140655Y-67372620D01*
X112163078Y-67370047D01*
X116078468Y-67370047D01*
X116136659Y-67388954D01*
X116148472Y-67399043D01*
X116378236Y-67628807D01*
X116386337Y-67640047D01*
X116387316Y-67639309D01*
X116392844Y-67646630D01*
X116428369Y-67679016D01*
X116430023Y-67680595D01*
X116440427Y-67690998D01*
X116444003Y-67694574D01*
X116446928Y-67696578D01*
X116452305Y-67700837D01*
X116475864Y-67722314D01*
X116475865Y-67722314D01*
X116475867Y-67722316D01*
X116485030Y-67725866D01*
X116505216Y-67736505D01*
X116513319Y-67742056D01*
X116544353Y-67749355D01*
X116550890Y-67751379D01*
X116580627Y-67762900D01*
X116590452Y-67762900D01*
X116613116Y-67765529D01*
X116622681Y-67767779D01*
X116647294Y-67764345D01*
X116654253Y-67763375D01*
X116661099Y-67762900D01*
X119702573Y-67762900D01*
X119760764Y-67781807D01*
X119796728Y-67831307D01*
X119796728Y-67892493D01*
X119772577Y-67931904D01*
X119562207Y-68142274D01*
X119507690Y-68170051D01*
X119492203Y-68171270D01*
X112811183Y-68171270D01*
X112752992Y-68152363D01*
X112721130Y-68113396D01*
X112693378Y-68052629D01*
X112693377Y-68052628D01*
X112693377Y-68052627D01*
X112599128Y-67943857D01*
X112599127Y-67943856D01*
X112599126Y-67943855D01*
X112478057Y-67866049D01*
X112478054Y-67866047D01*
X112478053Y-67866047D01*
X112478050Y-67866046D01*
X112339964Y-67825500D01*
X112339961Y-67825500D01*
X112196039Y-67825500D01*
X112196035Y-67825500D01*
X112057949Y-67866046D01*
X112057942Y-67866049D01*
X111936873Y-67943855D01*
X111842622Y-68052628D01*
X111782834Y-68183543D01*
X111762353Y-68325997D01*
X111762353Y-68326002D01*
X111782834Y-68468456D01*
X111842622Y-68599371D01*
X111842623Y-68599373D01*
X111927813Y-68697688D01*
X111936873Y-68708144D01*
X112057942Y-68785950D01*
X112057947Y-68785953D01*
X112151812Y-68813514D01*
X112196035Y-68826499D01*
X112196036Y-68826499D01*
X112196039Y-68826500D01*
X112196041Y-68826500D01*
X112339959Y-68826500D01*
X112339961Y-68826500D01*
X112478053Y-68785953D01*
X112478060Y-68785948D01*
X112484494Y-68783011D01*
X112485361Y-68784911D01*
X112528413Y-68772270D01*
X119592518Y-68772270D01*
X119606193Y-68774502D01*
X119606365Y-68773276D01*
X119615446Y-68774542D01*
X119615447Y-68774543D01*
X119615447Y-68774542D01*
X119615448Y-68774543D01*
X119624189Y-68774138D01*
X119663475Y-68772322D01*
X119665752Y-68772270D01*
X119685523Y-68772270D01*
X119685526Y-68772270D01*
X119689019Y-68771616D01*
X119695823Y-68770826D01*
X119727674Y-68769355D01*
X119736658Y-68765387D01*
X119758459Y-68758635D01*
X119768115Y-68756831D01*
X119795225Y-68740044D01*
X119801271Y-68736858D01*
X119830447Y-68723976D01*
X119837391Y-68717030D01*
X119855283Y-68702859D01*
X119863634Y-68697689D01*
X119882847Y-68672244D01*
X119887344Y-68667078D01*
X124470927Y-64083496D01*
X124525444Y-64055719D01*
X124540931Y-64054500D01*
X126552917Y-64054500D01*
X126611108Y-64073407D01*
X126627733Y-64088667D01*
X126668872Y-64136143D01*
X126789947Y-64213953D01*
X126896403Y-64245211D01*
X126928035Y-64254499D01*
X126928036Y-64254499D01*
X126928039Y-64254500D01*
X126928041Y-64254500D01*
X127071959Y-64254500D01*
X127071961Y-64254500D01*
X127210053Y-64213953D01*
X127331128Y-64136143D01*
X127425377Y-64027373D01*
X127425378Y-64027369D01*
X127425380Y-64027368D01*
X127429205Y-64021417D01*
X127430827Y-64022459D01*
X127465815Y-63984334D01*
X127525781Y-63972181D01*
X127581438Y-63997596D01*
X127611527Y-64050871D01*
X127613500Y-64070536D01*
X127613500Y-65577450D01*
X127594593Y-65635641D01*
X127545093Y-65671605D01*
X127483907Y-65671605D01*
X127435958Y-65637718D01*
X127375997Y-65559576D01*
X127353931Y-65530819D01*
X127233713Y-65438572D01*
X127202229Y-65425531D01*
X127134557Y-65397500D01*
X127093716Y-65380583D01*
X127093714Y-65380582D01*
X127093712Y-65380582D01*
X126981200Y-65365770D01*
X126905760Y-65365770D01*
X126905759Y-65365770D01*
X126793247Y-65380582D01*
X126793241Y-65380584D01*
X126653248Y-65438571D01*
X126533031Y-65530817D01*
X126533027Y-65530821D01*
X126440781Y-65651038D01*
X126382794Y-65791031D01*
X126382792Y-65791037D01*
X126363014Y-65941269D01*
X126363014Y-65941270D01*
X126382512Y-66089377D01*
X126382793Y-66091506D01*
X126386773Y-66101115D01*
X126441975Y-66234384D01*
X126446776Y-66295381D01*
X126414806Y-66347550D01*
X126358278Y-66370965D01*
X126350511Y-66371270D01*
X125842766Y-66371270D01*
X125691144Y-66386688D01*
X125691142Y-66386689D01*
X125497088Y-66447573D01*
X125497087Y-66447574D01*
X125319275Y-66546267D01*
X125319260Y-66546278D01*
X125164954Y-66678744D01*
X125164943Y-66678756D01*
X125040460Y-66839576D01*
X125040459Y-66839578D01*
X124950893Y-67022172D01*
X124925234Y-67121270D01*
X125727370Y-67121270D01*
X125687871Y-67145727D01*
X125620280Y-67235232D01*
X125589586Y-67343110D01*
X125599935Y-67454791D01*
X125649929Y-67555192D01*
X125722412Y-67621270D01*
X124920112Y-67621270D01*
X124920410Y-67623210D01*
X124920410Y-67623211D01*
X124991046Y-67813936D01*
X125098627Y-67986534D01*
X125098632Y-67986540D01*
X125216501Y-68110538D01*
X125242889Y-68165741D01*
X125231790Y-68225911D01*
X125214753Y-68248747D01*
X125209124Y-68254376D01*
X125199172Y-68269269D01*
X125186864Y-68284267D01*
X123763735Y-69707396D01*
X123709218Y-69735173D01*
X123648786Y-69725602D01*
X123647063Y-69724702D01*
X123593439Y-69696039D01*
X123593434Y-69696037D01*
X123395414Y-69635968D01*
X123395409Y-69635967D01*
X123189483Y-69615686D01*
X123189477Y-69615686D01*
X122983550Y-69635967D01*
X122983545Y-69635968D01*
X122785525Y-69696037D01*
X122603027Y-69793585D01*
X122443075Y-69924854D01*
X122443065Y-69924864D01*
X122311796Y-70084816D01*
X122214248Y-70267314D01*
X122154179Y-70465334D01*
X122154178Y-70465339D01*
X122133897Y-70671265D01*
X122133897Y-70671272D01*
X122154178Y-70877198D01*
X122154179Y-70877203D01*
X122214248Y-71075223D01*
X122311796Y-71257721D01*
X122443065Y-71417673D01*
X122443070Y-71417679D01*
X122443075Y-71417683D01*
X122603027Y-71548952D01*
X122603028Y-71548952D01*
X122603030Y-71548954D01*
X122785526Y-71646501D01*
X122923477Y-71688347D01*
X122983545Y-71706569D01*
X122983550Y-71706570D01*
X123189477Y-71726852D01*
X123189480Y-71726852D01*
X123189483Y-71726852D01*
X123395409Y-71706570D01*
X123395414Y-71706569D01*
X123593434Y-71646501D01*
X123775930Y-71548954D01*
X123935890Y-71417679D01*
X124067165Y-71257719D01*
X124164712Y-71075223D01*
X124210299Y-70924939D01*
X124245284Y-70874743D01*
X124303092Y-70854697D01*
X124361643Y-70872458D01*
X124398572Y-70921242D01*
X124400663Y-70928055D01*
X124456049Y-71134758D01*
X124555879Y-71348846D01*
X124691366Y-71542342D01*
X124858406Y-71709382D01*
X125051902Y-71844869D01*
X125265990Y-71944699D01*
X125346502Y-71966273D01*
X125397816Y-71999597D01*
X125419743Y-72056719D01*
X125403907Y-72115819D01*
X125356358Y-72154324D01*
X125320879Y-72160900D01*
X99159500Y-72160900D01*
X99101309Y-72141993D01*
X99065345Y-72092493D01*
X99060500Y-72061900D01*
X99060500Y-70671272D01*
X99273897Y-70671272D01*
X99294178Y-70877198D01*
X99294179Y-70877203D01*
X99354248Y-71075223D01*
X99451796Y-71257721D01*
X99583065Y-71417673D01*
X99583070Y-71417679D01*
X99583075Y-71417683D01*
X99743027Y-71548952D01*
X99743028Y-71548952D01*
X99743030Y-71548954D01*
X99925526Y-71646501D01*
X100063477Y-71688347D01*
X100123545Y-71706569D01*
X100123550Y-71706570D01*
X100329477Y-71726852D01*
X100329480Y-71726852D01*
X100329483Y-71726852D01*
X100535409Y-71706570D01*
X100535414Y-71706569D01*
X100733434Y-71646501D01*
X100915930Y-71548954D01*
X101075890Y-71417679D01*
X101207165Y-71257719D01*
X101304712Y-71075223D01*
X101364780Y-70877203D01*
X101364781Y-70877198D01*
X101385063Y-70671272D01*
X101385063Y-70671265D01*
X101364781Y-70465339D01*
X101364780Y-70465334D01*
X101326903Y-70340471D01*
X101304712Y-70267315D01*
X101207165Y-70084819D01*
X101185751Y-70058726D01*
X101075894Y-69924864D01*
X101075890Y-69924859D01*
X100983081Y-69848693D01*
X100915932Y-69793585D01*
X100733434Y-69696037D01*
X100535414Y-69635968D01*
X100535409Y-69635967D01*
X100329483Y-69615686D01*
X100329477Y-69615686D01*
X100123550Y-69635967D01*
X100123545Y-69635968D01*
X99925525Y-69696037D01*
X99743027Y-69793585D01*
X99583075Y-69924854D01*
X99583065Y-69924864D01*
X99451796Y-70084816D01*
X99354248Y-70267314D01*
X99294179Y-70465334D01*
X99294178Y-70465339D01*
X99273897Y-70671265D01*
X99273897Y-70671272D01*
X99060500Y-70671272D01*
X99060500Y-55442266D01*
X99063752Y-55432255D01*
X99063460Y-55431178D01*
X99257497Y-55431178D01*
X99258023Y-55432562D01*
X99278177Y-55637199D01*
X99278178Y-55637204D01*
X99338247Y-55835224D01*
X99435795Y-56017722D01*
X99538591Y-56142979D01*
X99567069Y-56177680D01*
X99567074Y-56177684D01*
X99727026Y-56308953D01*
X99727027Y-56308953D01*
X99727029Y-56308955D01*
X99909525Y-56406502D01*
X100024593Y-56441407D01*
X100107544Y-56466570D01*
X100107549Y-56466571D01*
X100313476Y-56486853D01*
X100313479Y-56486853D01*
X100313482Y-56486853D01*
X100519408Y-56466571D01*
X100519413Y-56466570D01*
X100535309Y-56461748D01*
X100717433Y-56406502D01*
X100899929Y-56308955D01*
X101059889Y-56177680D01*
X101191164Y-56017720D01*
X101288711Y-55835224D01*
X101348779Y-55637204D01*
X101348780Y-55637199D01*
X101369062Y-55431273D01*
X101797896Y-55431273D01*
X101818177Y-55637199D01*
X101818178Y-55637204D01*
X101878247Y-55835224D01*
X101975795Y-56017722D01*
X102078591Y-56142979D01*
X102107069Y-56177680D01*
X102107074Y-56177684D01*
X102267026Y-56308953D01*
X102267027Y-56308953D01*
X102267029Y-56308955D01*
X102449525Y-56406502D01*
X102564593Y-56441407D01*
X102647544Y-56466570D01*
X102647549Y-56466571D01*
X102853476Y-56486853D01*
X102853479Y-56486853D01*
X102853482Y-56486853D01*
X103059408Y-56466571D01*
X103059413Y-56466570D01*
X103075309Y-56461748D01*
X103257433Y-56406502D01*
X103439929Y-56308955D01*
X103599889Y-56177680D01*
X103731164Y-56017720D01*
X103828711Y-55835224D01*
X103888779Y-55637204D01*
X103888780Y-55637199D01*
X103909062Y-55431273D01*
X104337896Y-55431273D01*
X104358177Y-55637199D01*
X104358178Y-55637204D01*
X104418247Y-55835224D01*
X104515795Y-56017722D01*
X104618591Y-56142979D01*
X104647069Y-56177680D01*
X104647074Y-56177684D01*
X104807026Y-56308953D01*
X104807027Y-56308953D01*
X104807029Y-56308955D01*
X104989525Y-56406502D01*
X105104593Y-56441407D01*
X105187544Y-56466570D01*
X105187549Y-56466571D01*
X105393476Y-56486853D01*
X105393479Y-56486853D01*
X105393482Y-56486853D01*
X105599408Y-56466571D01*
X105599413Y-56466570D01*
X105615309Y-56461748D01*
X105797433Y-56406502D01*
X105979929Y-56308955D01*
X106139889Y-56177680D01*
X106271164Y-56017720D01*
X106368711Y-55835224D01*
X106428779Y-55637204D01*
X106428780Y-55637199D01*
X106449062Y-55431273D01*
X106877896Y-55431273D01*
X106898177Y-55637199D01*
X106898178Y-55637204D01*
X106958247Y-55835224D01*
X107055795Y-56017722D01*
X107158591Y-56142979D01*
X107187069Y-56177680D01*
X107187074Y-56177684D01*
X107347026Y-56308953D01*
X107347027Y-56308953D01*
X107347029Y-56308955D01*
X107529525Y-56406502D01*
X107644593Y-56441407D01*
X107727544Y-56466570D01*
X107727549Y-56466571D01*
X107933476Y-56486853D01*
X107933479Y-56486853D01*
X107933482Y-56486853D01*
X108139408Y-56466571D01*
X108139413Y-56466570D01*
X108155309Y-56461748D01*
X108337433Y-56406502D01*
X108519929Y-56308955D01*
X108679889Y-56177680D01*
X108811164Y-56017720D01*
X108908711Y-55835224D01*
X108968779Y-55637204D01*
X108968780Y-55637199D01*
X108989062Y-55431273D01*
X108989062Y-55431266D01*
X108968780Y-55225340D01*
X108968779Y-55225335D01*
X108930902Y-55100472D01*
X108908711Y-55027316D01*
X108811164Y-54844820D01*
X108679889Y-54684860D01*
X108529602Y-54561523D01*
X108519931Y-54553586D01*
X108337433Y-54456038D01*
X108139413Y-54395969D01*
X108139408Y-54395968D01*
X107933482Y-54375687D01*
X107933476Y-54375687D01*
X107727549Y-54395968D01*
X107727544Y-54395969D01*
X107529524Y-54456038D01*
X107347026Y-54553586D01*
X107187074Y-54684855D01*
X107187064Y-54684865D01*
X107055795Y-54844817D01*
X106958247Y-55027315D01*
X106898178Y-55225335D01*
X106898177Y-55225340D01*
X106877896Y-55431266D01*
X106877896Y-55431273D01*
X106449062Y-55431273D01*
X106449062Y-55431266D01*
X106428780Y-55225340D01*
X106428779Y-55225335D01*
X106390902Y-55100472D01*
X106368711Y-55027316D01*
X106271164Y-54844820D01*
X106139889Y-54684860D01*
X105989602Y-54561523D01*
X105979931Y-54553586D01*
X105797433Y-54456038D01*
X105599413Y-54395969D01*
X105599408Y-54395968D01*
X105393482Y-54375687D01*
X105393476Y-54375687D01*
X105187549Y-54395968D01*
X105187544Y-54395969D01*
X104989524Y-54456038D01*
X104807026Y-54553586D01*
X104647074Y-54684855D01*
X104647064Y-54684865D01*
X104515795Y-54844817D01*
X104418247Y-55027315D01*
X104358178Y-55225335D01*
X104358177Y-55225340D01*
X104337896Y-55431266D01*
X104337896Y-55431273D01*
X103909062Y-55431273D01*
X103909062Y-55431266D01*
X103888780Y-55225340D01*
X103888779Y-55225335D01*
X103850902Y-55100472D01*
X103828711Y-55027316D01*
X103731164Y-54844820D01*
X103599889Y-54684860D01*
X103449602Y-54561523D01*
X103439931Y-54553586D01*
X103257433Y-54456038D01*
X103059413Y-54395969D01*
X103059408Y-54395968D01*
X102853482Y-54375687D01*
X102853476Y-54375687D01*
X102647549Y-54395968D01*
X102647544Y-54395969D01*
X102449524Y-54456038D01*
X102267026Y-54553586D01*
X102107074Y-54684855D01*
X102107064Y-54684865D01*
X101975795Y-54844817D01*
X101878247Y-55027315D01*
X101818178Y-55225335D01*
X101818177Y-55225340D01*
X101797896Y-55431266D01*
X101797896Y-55431273D01*
X101369062Y-55431273D01*
X101369062Y-55431266D01*
X101348780Y-55225340D01*
X101348779Y-55225335D01*
X101310902Y-55100472D01*
X101288711Y-55027316D01*
X101191164Y-54844820D01*
X101059889Y-54684860D01*
X100909602Y-54561523D01*
X100899931Y-54553586D01*
X100717433Y-54456038D01*
X100519413Y-54395969D01*
X100519408Y-54395968D01*
X100313482Y-54375687D01*
X100313476Y-54375687D01*
X100107549Y-54395968D01*
X100107544Y-54395969D01*
X99909524Y-54456038D01*
X99727026Y-54553586D01*
X99567074Y-54684855D01*
X99567064Y-54684865D01*
X99435795Y-54844817D01*
X99338247Y-55027315D01*
X99278178Y-55225335D01*
X99278177Y-55225340D01*
X99258023Y-55429977D01*
X99257497Y-55431178D01*
X99063460Y-55431178D01*
X99060500Y-55420273D01*
X99060500Y-54099900D01*
X99079407Y-54041709D01*
X99128907Y-54005745D01*
X99159500Y-54000900D01*
X120059985Y-54000900D01*
X120118176Y-54019807D01*
G37*
%TD.AperFunction*%
%TA.AperFunction,Conductor*%
G36*
X132521291Y-54019807D02*
G01*
X132557255Y-54069307D01*
X132562100Y-54099900D01*
X132562100Y-72061900D01*
X132543193Y-72120091D01*
X132493693Y-72156055D01*
X132463100Y-72160900D01*
X126138081Y-72160900D01*
X126079890Y-72141993D01*
X126043926Y-72092493D01*
X126043926Y-72031307D01*
X126079890Y-71981807D01*
X126112458Y-71966273D01*
X126192969Y-71944699D01*
X126407057Y-71844869D01*
X126600553Y-71709382D01*
X126767593Y-71542342D01*
X126903080Y-71348846D01*
X127002910Y-71134759D01*
X127024353Y-71054735D01*
X127057677Y-71003421D01*
X127114798Y-70981494D01*
X127173899Y-70997329D01*
X127212404Y-71044879D01*
X127218980Y-71080358D01*
X127218980Y-71541015D01*
X127218981Y-71541027D01*
X127230612Y-71599496D01*
X127230614Y-71599502D01*
X127274925Y-71665817D01*
X127274928Y-71665821D01*
X127341249Y-71710136D01*
X127385711Y-71718980D01*
X127399721Y-71721767D01*
X127399726Y-71721767D01*
X127399732Y-71721769D01*
X127399733Y-71721769D01*
X129139227Y-71721769D01*
X129139228Y-71721769D01*
X129197711Y-71710136D01*
X129264032Y-71665821D01*
X129308347Y-71599500D01*
X129319980Y-71541017D01*
X129319980Y-69801521D01*
X129318401Y-69793585D01*
X129315219Y-69777585D01*
X129308347Y-69743038D01*
X129264032Y-69676717D01*
X129264028Y-69676714D01*
X129197713Y-69632403D01*
X129197711Y-69632402D01*
X129197708Y-69632401D01*
X129197707Y-69632401D01*
X129139238Y-69620770D01*
X129139228Y-69620769D01*
X127399732Y-69620769D01*
X127399731Y-69620769D01*
X127399721Y-69620770D01*
X127341252Y-69632401D01*
X127341246Y-69632403D01*
X127274931Y-69676714D01*
X127274925Y-69676720D01*
X127230614Y-69743035D01*
X127230612Y-69743041D01*
X127218981Y-69801510D01*
X127218980Y-69801522D01*
X127218980Y-70262179D01*
X127200073Y-70320370D01*
X127150573Y-70356334D01*
X127089387Y-70356334D01*
X127039887Y-70320370D01*
X127024353Y-70287802D01*
X127002909Y-70207774D01*
X126903085Y-69993701D01*
X126903081Y-69993693D01*
X126767593Y-69800195D01*
X126600553Y-69633155D01*
X126407057Y-69497668D01*
X126192969Y-69397838D01*
X125979480Y-69340633D01*
X125979480Y-70235767D01*
X125871795Y-70186589D01*
X125765243Y-70171269D01*
X125693717Y-70171269D01*
X125587165Y-70186589D01*
X125479480Y-70235767D01*
X125479480Y-69340633D01*
X125265985Y-69397839D01*
X125051912Y-69497663D01*
X125051906Y-69497666D01*
X124980790Y-69547462D01*
X124922278Y-69565350D01*
X124864427Y-69545429D01*
X124829333Y-69495309D01*
X124830401Y-69434133D01*
X124854002Y-69396362D01*
X125492869Y-68757496D01*
X125547386Y-68729719D01*
X125562873Y-68728500D01*
X127090116Y-68728500D01*
X127109429Y-68730401D01*
X127127000Y-68733897D01*
X127154132Y-68728500D01*
X127154133Y-68728500D01*
X127234495Y-68712515D01*
X127276465Y-68684471D01*
X127302622Y-68666994D01*
X127302622Y-68666993D01*
X127313342Y-68659831D01*
X127313346Y-68659827D01*
X127325624Y-68651624D01*
X127335577Y-68636727D01*
X127347881Y-68621734D01*
X128057733Y-67911881D01*
X128072729Y-67899575D01*
X128087624Y-67889624D01*
X128148515Y-67798495D01*
X128164500Y-67718133D01*
X128164500Y-67718132D01*
X128169897Y-67691000D01*
X128167513Y-67679016D01*
X128166402Y-67673427D01*
X128164500Y-67654115D01*
X128164500Y-67621270D01*
X129250112Y-67621270D01*
X129250410Y-67623210D01*
X129250410Y-67623211D01*
X129321046Y-67813936D01*
X129428627Y-67986534D01*
X129428632Y-67986540D01*
X129568746Y-68133939D01*
X129735667Y-68250121D01*
X129735678Y-68250127D01*
X129922574Y-68330330D01*
X129922577Y-68330331D01*
X130121783Y-68371269D01*
X130121791Y-68371270D01*
X130373479Y-68371270D01*
X130373480Y-68371269D01*
X130373480Y-67671270D01*
X130873480Y-67671270D01*
X130873480Y-68371269D01*
X130873481Y-68371270D01*
X131074194Y-68371270D01*
X131225815Y-68355851D01*
X131225817Y-68355850D01*
X131419871Y-68294966D01*
X131419872Y-68294965D01*
X131597684Y-68196272D01*
X131597699Y-68196261D01*
X131752005Y-68063795D01*
X131752016Y-68063783D01*
X131876499Y-67902963D01*
X131876500Y-67902961D01*
X131966066Y-67720367D01*
X131991726Y-67621270D01*
X131189590Y-67621270D01*
X131229089Y-67596813D01*
X131296680Y-67507308D01*
X131327374Y-67399430D01*
X131317025Y-67287749D01*
X131267031Y-67187348D01*
X131194548Y-67121270D01*
X131996847Y-67121270D01*
X131996847Y-67121269D01*
X131996549Y-67119329D01*
X131996549Y-67119328D01*
X131925913Y-66928603D01*
X131818332Y-66756005D01*
X131818327Y-66755999D01*
X131678213Y-66608600D01*
X131511292Y-66492418D01*
X131511281Y-66492412D01*
X131324385Y-66412209D01*
X131324382Y-66412208D01*
X131125176Y-66371270D01*
X130873481Y-66371270D01*
X130873480Y-66371271D01*
X130873480Y-67071270D01*
X130373480Y-67071270D01*
X130373480Y-66371271D01*
X130373479Y-66371270D01*
X130172766Y-66371270D01*
X130021144Y-66386688D01*
X130021142Y-66386689D01*
X129827088Y-66447573D01*
X129827087Y-66447574D01*
X129649275Y-66546267D01*
X129649260Y-66546278D01*
X129494954Y-66678744D01*
X129494943Y-66678756D01*
X129370460Y-66839576D01*
X129370459Y-66839578D01*
X129280893Y-67022172D01*
X129255234Y-67121270D01*
X130057370Y-67121270D01*
X130017871Y-67145727D01*
X129950280Y-67235232D01*
X129919586Y-67343110D01*
X129929935Y-67454791D01*
X129979929Y-67555192D01*
X130052412Y-67621270D01*
X129250112Y-67621270D01*
X128164500Y-67621270D01*
X128164500Y-65450164D01*
X128183407Y-65391973D01*
X128232907Y-65356009D01*
X128291392Y-65355174D01*
X128297443Y-65356950D01*
X128297447Y-65356953D01*
X128435539Y-65397500D01*
X128435541Y-65397500D01*
X128579459Y-65397500D01*
X128579461Y-65397500D01*
X128717553Y-65356953D01*
X128838628Y-65279143D01*
X128932877Y-65170373D01*
X128992665Y-65039457D01*
X129003845Y-64961694D01*
X129030839Y-64906791D01*
X129031769Y-64905845D01*
X131917213Y-62020401D01*
X131932209Y-62008095D01*
X131947104Y-61998144D01*
X131965586Y-61970485D01*
X132007995Y-61907015D01*
X132019198Y-61850696D01*
X132023980Y-61826653D01*
X132023980Y-61826652D01*
X132029377Y-61799520D01*
X132025882Y-61781947D01*
X132023980Y-61762635D01*
X132023980Y-61103071D01*
X132042887Y-61044880D01*
X132069458Y-61019786D01*
X132070603Y-61019049D01*
X132079608Y-61013263D01*
X132173857Y-60904493D01*
X132233645Y-60773577D01*
X132246146Y-60686628D01*
X132254127Y-60631122D01*
X132254127Y-60631117D01*
X132233645Y-60488663D01*
X132222134Y-60463458D01*
X132173857Y-60357747D01*
X132079608Y-60248977D01*
X132079607Y-60248976D01*
X132079606Y-60248975D01*
X131958537Y-60171169D01*
X131958534Y-60171167D01*
X131958533Y-60171167D01*
X131958530Y-60171166D01*
X131820444Y-60130620D01*
X131820441Y-60130620D01*
X131676519Y-60130620D01*
X131676515Y-60130620D01*
X131538429Y-60171166D01*
X131538422Y-60171169D01*
X131417353Y-60248975D01*
X131323102Y-60357748D01*
X131263314Y-60488663D01*
X131242833Y-60631117D01*
X131242833Y-60631122D01*
X131263314Y-60773576D01*
X131321737Y-60901503D01*
X131323103Y-60904493D01*
X131417352Y-61013263D01*
X131420665Y-61015392D01*
X131427502Y-61019786D01*
X131466234Y-61067152D01*
X131472980Y-61103071D01*
X131472980Y-61644395D01*
X131454073Y-61702586D01*
X131443984Y-61714399D01*
X128762012Y-64396370D01*
X128707495Y-64424147D01*
X128664118Y-64421356D01*
X128579466Y-64396501D01*
X128579462Y-64396500D01*
X128579461Y-64396500D01*
X128435539Y-64396500D01*
X128435535Y-64396500D01*
X128291391Y-64438825D01*
X128230231Y-64437077D01*
X128181778Y-64399715D01*
X128164500Y-64343835D01*
X128164500Y-62266883D01*
X128166402Y-62247569D01*
X128166515Y-62247000D01*
X128169897Y-62230000D01*
X128151896Y-62139505D01*
X128148515Y-62122505D01*
X128126786Y-62089985D01*
X128114352Y-62071376D01*
X128100292Y-62050334D01*
X128100292Y-62050333D01*
X128100288Y-62050329D01*
X128087627Y-62031380D01*
X128087626Y-62031379D01*
X128087624Y-62031376D01*
X128079750Y-62026115D01*
X128072733Y-62021426D01*
X128057731Y-62009115D01*
X126950119Y-60901503D01*
X126922342Y-60846986D01*
X126931913Y-60786554D01*
X126975178Y-60743289D01*
X127007197Y-60733347D01*
X127093716Y-60721957D01*
X127233713Y-60663968D01*
X127353931Y-60571721D01*
X127446178Y-60451503D01*
X127504167Y-60311506D01*
X127523946Y-60161270D01*
X127504167Y-60011034D01*
X127446178Y-59871037D01*
X127382987Y-59788686D01*
X127362564Y-59731011D01*
X127379941Y-59672345D01*
X127413485Y-59641859D01*
X127567684Y-59556271D01*
X127567699Y-59556261D01*
X127722005Y-59423795D01*
X127722016Y-59423783D01*
X127846499Y-59262963D01*
X127846500Y-59262961D01*
X127936066Y-59080367D01*
X127961726Y-58981270D01*
X129250112Y-58981270D01*
X129250410Y-58983210D01*
X129250410Y-58983211D01*
X129321046Y-59173936D01*
X129428627Y-59346534D01*
X129428632Y-59346540D01*
X129568746Y-59493939D01*
X129735667Y-59610121D01*
X129735678Y-59610127D01*
X129922574Y-59690330D01*
X129922577Y-59690331D01*
X130121783Y-59731269D01*
X130121791Y-59731270D01*
X130373479Y-59731270D01*
X130373480Y-59731269D01*
X130373480Y-59031270D01*
X130873480Y-59031270D01*
X130873480Y-59731269D01*
X130873481Y-59731270D01*
X131074194Y-59731270D01*
X131225815Y-59715851D01*
X131225817Y-59715850D01*
X131419871Y-59654966D01*
X131419872Y-59654965D01*
X131597684Y-59556272D01*
X131597699Y-59556261D01*
X131752005Y-59423795D01*
X131752016Y-59423783D01*
X131876499Y-59262963D01*
X131876500Y-59262961D01*
X131966066Y-59080367D01*
X131991726Y-58981270D01*
X131189590Y-58981270D01*
X131229089Y-58956813D01*
X131296680Y-58867308D01*
X131327374Y-58759430D01*
X131317025Y-58647749D01*
X131267031Y-58547348D01*
X131194548Y-58481270D01*
X131996847Y-58481270D01*
X131996847Y-58481269D01*
X131996549Y-58479329D01*
X131996549Y-58479328D01*
X131925913Y-58288603D01*
X131818332Y-58116005D01*
X131818327Y-58115999D01*
X131678213Y-57968600D01*
X131511292Y-57852418D01*
X131511281Y-57852412D01*
X131324385Y-57772209D01*
X131324382Y-57772208D01*
X131125176Y-57731270D01*
X130873481Y-57731270D01*
X130873480Y-57731271D01*
X130873480Y-58431270D01*
X130373480Y-58431270D01*
X130373480Y-57731271D01*
X130373479Y-57731270D01*
X130172766Y-57731270D01*
X130021144Y-57746688D01*
X130021142Y-57746689D01*
X129827088Y-57807573D01*
X129827087Y-57807574D01*
X129649275Y-57906267D01*
X129649260Y-57906278D01*
X129494954Y-58038744D01*
X129494943Y-58038756D01*
X129370460Y-58199576D01*
X129370459Y-58199578D01*
X129280893Y-58382172D01*
X129255234Y-58481270D01*
X130057370Y-58481270D01*
X130017871Y-58505727D01*
X129950280Y-58595232D01*
X129919586Y-58703110D01*
X129929935Y-58814791D01*
X129979929Y-58915192D01*
X130052412Y-58981270D01*
X129250112Y-58981270D01*
X127961726Y-58981270D01*
X127159602Y-58981270D01*
X127199101Y-58956813D01*
X127266692Y-58867308D01*
X127297386Y-58759430D01*
X127287037Y-58647749D01*
X127237043Y-58547348D01*
X127164560Y-58481270D01*
X127966847Y-58481270D01*
X127966847Y-58481269D01*
X127966549Y-58479329D01*
X127966549Y-58479328D01*
X127895913Y-58288603D01*
X127788332Y-58116005D01*
X127788327Y-58115999D01*
X127673442Y-57995140D01*
X127647054Y-57939937D01*
X127658153Y-57879767D01*
X127670370Y-57862108D01*
X127701355Y-57826351D01*
X127761143Y-57695435D01*
X127767970Y-57647949D01*
X127781625Y-57552980D01*
X127781625Y-57552975D01*
X127761143Y-57410521D01*
X127701355Y-57279606D01*
X127701355Y-57279605D01*
X127607106Y-57170835D01*
X127607105Y-57170834D01*
X127607104Y-57170833D01*
X127486035Y-57093027D01*
X127486032Y-57093025D01*
X127486031Y-57093025D01*
X127486028Y-57093024D01*
X127347942Y-57052478D01*
X127347939Y-57052478D01*
X127204017Y-57052478D01*
X127204013Y-57052478D01*
X127065927Y-57093024D01*
X127065920Y-57093027D01*
X126944850Y-57170834D01*
X126944848Y-57170836D01*
X126860513Y-57268165D01*
X126808117Y-57299761D01*
X126785694Y-57302334D01*
X124428288Y-57302334D01*
X124370097Y-57283427D01*
X124334133Y-57233927D01*
X124334133Y-57172741D01*
X124358281Y-57133333D01*
X124436998Y-57054616D01*
X124491513Y-57026841D01*
X124507000Y-57025622D01*
X124648837Y-57025622D01*
X124648839Y-57025622D01*
X124786931Y-56985075D01*
X124908006Y-56907265D01*
X125002255Y-56798495D01*
X125062043Y-56667579D01*
X125082525Y-56525122D01*
X125072988Y-56458791D01*
X125083421Y-56398504D01*
X125127298Y-56355861D01*
X125187861Y-56347153D01*
X125217648Y-56357393D01*
X125309519Y-56406499D01*
X125309525Y-56406502D01*
X125424593Y-56441407D01*
X125507544Y-56466570D01*
X125507549Y-56466571D01*
X125713476Y-56486853D01*
X125713479Y-56486853D01*
X125713482Y-56486853D01*
X125919408Y-56466571D01*
X125919413Y-56466570D01*
X125935309Y-56461748D01*
X126117433Y-56406502D01*
X126299929Y-56308955D01*
X126309603Y-56301016D01*
X127202979Y-56301016D01*
X127202980Y-56301028D01*
X127214611Y-56359497D01*
X127214613Y-56359503D01*
X127258924Y-56425818D01*
X127258927Y-56425822D01*
X127325248Y-56470137D01*
X127369710Y-56478981D01*
X127383720Y-56481768D01*
X127383725Y-56481768D01*
X127383731Y-56481770D01*
X127383732Y-56481770D01*
X129123226Y-56481770D01*
X129123227Y-56481770D01*
X129181710Y-56470137D01*
X129248031Y-56425822D01*
X129292346Y-56359501D01*
X129303979Y-56301018D01*
X129303979Y-54561522D01*
X129302400Y-54553586D01*
X129301190Y-54547501D01*
X129292346Y-54503039D01*
X129248031Y-54436718D01*
X129248027Y-54436715D01*
X129181712Y-54392404D01*
X129181710Y-54392403D01*
X129181707Y-54392402D01*
X129181706Y-54392402D01*
X129123237Y-54380771D01*
X129123227Y-54380770D01*
X127383731Y-54380770D01*
X127383730Y-54380770D01*
X127383720Y-54380771D01*
X127325251Y-54392402D01*
X127325245Y-54392404D01*
X127258930Y-54436715D01*
X127258924Y-54436721D01*
X127214613Y-54503036D01*
X127214611Y-54503042D01*
X127202980Y-54561511D01*
X127202979Y-54561523D01*
X127202979Y-56301016D01*
X126309603Y-56301016D01*
X126459889Y-56177680D01*
X126591164Y-56017720D01*
X126688711Y-55835224D01*
X126748779Y-55637204D01*
X126748780Y-55637199D01*
X126769062Y-55431273D01*
X126769062Y-55431266D01*
X126748780Y-55225340D01*
X126748779Y-55225335D01*
X126710902Y-55100472D01*
X126688711Y-55027316D01*
X126591164Y-54844820D01*
X126459889Y-54684860D01*
X126309602Y-54561523D01*
X126299931Y-54553586D01*
X126117433Y-54456038D01*
X125919413Y-54395969D01*
X125919408Y-54395968D01*
X125713482Y-54375687D01*
X125713476Y-54375687D01*
X125507549Y-54395968D01*
X125507544Y-54395969D01*
X125309524Y-54456038D01*
X125127026Y-54553586D01*
X124967074Y-54684855D01*
X124967064Y-54684865D01*
X124835795Y-54844817D01*
X124738248Y-55027314D01*
X124692659Y-55177599D01*
X124657674Y-55227795D01*
X124599865Y-55247841D01*
X124541315Y-55230080D01*
X124504386Y-55181295D01*
X124502295Y-55174483D01*
X124446908Y-54967774D01*
X124347084Y-54753702D01*
X124347080Y-54753694D01*
X124211592Y-54560196D01*
X124044552Y-54393156D01*
X123851056Y-54257669D01*
X123705134Y-54189625D01*
X123660386Y-54147896D01*
X123648711Y-54087835D01*
X123674569Y-54032382D01*
X123728083Y-54002719D01*
X123746973Y-54000900D01*
X132463100Y-54000900D01*
X132521291Y-54019807D01*
G37*
%TD.AperFunction*%
%TA.AperFunction,Conductor*%
G36*
X105428718Y-61653132D02*
G01*
X105471983Y-61696397D01*
X105473826Y-61700215D01*
X105492623Y-61741373D01*
X105492622Y-61741373D01*
X105525913Y-61779792D01*
X105586872Y-61850143D01*
X105587733Y-61850696D01*
X105597022Y-61856666D01*
X105635754Y-61904032D01*
X105642500Y-61939951D01*
X105642500Y-64733115D01*
X105640598Y-64752427D01*
X105637103Y-64769999D01*
X105637103Y-64770002D01*
X105641311Y-64791162D01*
X105641316Y-64791182D01*
X105642500Y-64797132D01*
X105642500Y-64797133D01*
X105658485Y-64877495D01*
X105658486Y-64877496D01*
X105658486Y-64877498D01*
X105719148Y-64968283D01*
X105719376Y-64968624D01*
X105734267Y-64978574D01*
X105749269Y-64990885D01*
X107493485Y-66735101D01*
X107521262Y-66789618D01*
X107513534Y-66846231D01*
X107464834Y-66952866D01*
X107464834Y-66952868D01*
X107444353Y-67095322D01*
X107444353Y-67095327D01*
X107464834Y-67237781D01*
X107511973Y-67340999D01*
X107524623Y-67368698D01*
X107611333Y-67468767D01*
X107618873Y-67477469D01*
X107739813Y-67555192D01*
X107739947Y-67555278D01*
X107846403Y-67586536D01*
X107878035Y-67595824D01*
X107878036Y-67595824D01*
X107878039Y-67595825D01*
X107878041Y-67595825D01*
X108021959Y-67595825D01*
X108021961Y-67595825D01*
X108160053Y-67555278D01*
X108281128Y-67477468D01*
X108375377Y-67368698D01*
X108435165Y-67237782D01*
X108446250Y-67160681D01*
X108455647Y-67095327D01*
X108455647Y-67095322D01*
X108435165Y-66952868D01*
X108416296Y-66911552D01*
X108375377Y-66821952D01*
X108281128Y-66713182D01*
X108281127Y-66713181D01*
X108281126Y-66713180D01*
X108194833Y-66657724D01*
X108166037Y-66629435D01*
X108162757Y-66624525D01*
X108162741Y-66624504D01*
X108159478Y-66619620D01*
X108148624Y-66603376D01*
X108133733Y-66593426D01*
X108118731Y-66581115D01*
X107831083Y-66293467D01*
X107803306Y-66238950D01*
X107812877Y-66178518D01*
X107856142Y-66135253D01*
X107916574Y-66125682D01*
X107928973Y-66128471D01*
X108006797Y-66151323D01*
X108006798Y-66151323D01*
X108152156Y-66151323D01*
X108152157Y-66151323D01*
X108291629Y-66110370D01*
X108413913Y-66031783D01*
X108504658Y-65927055D01*
X108557053Y-65895461D01*
X108618014Y-65900697D01*
X108654294Y-65927055D01*
X108735375Y-66020628D01*
X108745042Y-66031784D01*
X108852924Y-66101115D01*
X108867325Y-66110370D01*
X109002040Y-66149926D01*
X109006793Y-66151322D01*
X109006797Y-66151323D01*
X109013591Y-66153318D01*
X109012959Y-66155468D01*
X109058495Y-66177841D01*
X109087063Y-66231947D01*
X109078373Y-66292512D01*
X109059522Y-66318860D01*
X109051267Y-66327115D01*
X109036269Y-66339423D01*
X109021379Y-66349373D01*
X109021376Y-66349375D01*
X108960484Y-66440505D01*
X108946588Y-66510372D01*
X108939446Y-66546278D01*
X108939103Y-66548000D01*
X108942160Y-66563370D01*
X108942598Y-66565569D01*
X108944500Y-66584883D01*
X108944500Y-66623374D01*
X108925593Y-66681565D01*
X108899024Y-66706658D01*
X108888872Y-66713182D01*
X108794622Y-66821953D01*
X108734834Y-66952868D01*
X108714353Y-67095322D01*
X108714353Y-67095327D01*
X108734834Y-67237781D01*
X108781973Y-67340999D01*
X108794623Y-67368698D01*
X108881333Y-67468767D01*
X108888873Y-67477469D01*
X109009813Y-67555192D01*
X109009947Y-67555278D01*
X109116403Y-67586536D01*
X109148035Y-67595824D01*
X109148036Y-67595824D01*
X109148039Y-67595825D01*
X109148041Y-67595825D01*
X109291959Y-67595825D01*
X109291961Y-67595825D01*
X109430053Y-67555278D01*
X109540464Y-67484321D01*
X109599636Y-67468767D01*
X109656653Y-67490966D01*
X109668804Y-67502775D01*
X109720798Y-67562779D01*
X109720800Y-67562781D01*
X109841028Y-67640047D01*
X109841875Y-67640591D01*
X109921147Y-67663867D01*
X109979963Y-67681137D01*
X109979964Y-67681137D01*
X109979967Y-67681138D01*
X109979969Y-67681138D01*
X110123887Y-67681138D01*
X110123889Y-67681138D01*
X110149285Y-67673681D01*
X110210444Y-67675427D01*
X110258897Y-67712788D01*
X110276137Y-67771495D01*
X110255577Y-67829122D01*
X110247181Y-67838674D01*
X109246752Y-68839104D01*
X109192235Y-68866881D01*
X109176748Y-68868100D01*
X104393255Y-68868100D01*
X104373941Y-68866198D01*
X104356371Y-68862703D01*
X104356370Y-68862703D01*
X104346621Y-68862703D01*
X104346621Y-68860814D01*
X104297924Y-68855048D01*
X104252996Y-68813514D01*
X104241062Y-68753504D01*
X104260123Y-68705814D01*
X104294352Y-68660091D01*
X104294353Y-68660088D01*
X104344596Y-68525381D01*
X104344598Y-68525370D01*
X104351000Y-68465824D01*
X104351000Y-68108199D01*
X104369907Y-68050008D01*
X104419407Y-68014044D01*
X104480593Y-68014044D01*
X104524818Y-68043367D01*
X104546163Y-68068000D01*
X104575332Y-68101663D01*
X104696401Y-68179469D01*
X104696406Y-68179472D01*
X104789699Y-68206865D01*
X104834494Y-68220018D01*
X104834495Y-68220018D01*
X104834498Y-68220019D01*
X104834500Y-68220019D01*
X104978418Y-68220019D01*
X104978420Y-68220019D01*
X105116512Y-68179472D01*
X105237587Y-68101662D01*
X105331836Y-67992892D01*
X105391624Y-67861976D01*
X105400751Y-67798495D01*
X105412106Y-67719521D01*
X105412106Y-67719516D01*
X105391624Y-67577062D01*
X105382077Y-67556157D01*
X105331836Y-67446146D01*
X105289560Y-67397357D01*
X105265743Y-67340999D01*
X105279601Y-67281404D01*
X105289555Y-67267702D01*
X105310356Y-67243698D01*
X105370144Y-67112782D01*
X105390626Y-66970325D01*
X105388931Y-66958539D01*
X105370144Y-66827868D01*
X105353810Y-66792103D01*
X105310356Y-66696952D01*
X105216107Y-66588182D01*
X105211669Y-66584337D01*
X105180073Y-66531941D01*
X105177500Y-66509517D01*
X105177500Y-61848615D01*
X105196407Y-61790424D01*
X105206484Y-61778623D01*
X105313771Y-61671336D01*
X105368286Y-61643561D01*
X105428718Y-61653132D01*
G37*
%TD.AperFunction*%
%TA.AperFunction,Conductor*%
G36*
X114032803Y-62016407D02*
G01*
X114044616Y-62026496D01*
X115749851Y-63731731D01*
X115762162Y-63746733D01*
X115772112Y-63761624D01*
X115793240Y-63775741D01*
X115793258Y-63775754D01*
X115795114Y-63776994D01*
X115802916Y-63782207D01*
X115863241Y-63822515D01*
X115943603Y-63838500D01*
X115943604Y-63838500D01*
X115970736Y-63843897D01*
X115988306Y-63840401D01*
X116007620Y-63838500D01*
X117424301Y-63838500D01*
X117482492Y-63857407D01*
X117518456Y-63906907D01*
X117522293Y-63951589D01*
X117502753Y-64087496D01*
X117502753Y-64087502D01*
X117523234Y-64229956D01*
X117575242Y-64343835D01*
X117583023Y-64360873D01*
X117677272Y-64469643D01*
X117685363Y-64474843D01*
X117687422Y-64476166D01*
X117726154Y-64523532D01*
X117732900Y-64559451D01*
X117732900Y-65474280D01*
X117713993Y-65532471D01*
X117664493Y-65568435D01*
X117603307Y-65568435D01*
X117553807Y-65532471D01*
X117543847Y-65515407D01*
X117519377Y-65461828D01*
X117519377Y-65461827D01*
X117425128Y-65353057D01*
X117425127Y-65353056D01*
X117425126Y-65353055D01*
X117304057Y-65275249D01*
X117304054Y-65275247D01*
X117304053Y-65275247D01*
X117304050Y-65275246D01*
X117165964Y-65234700D01*
X117165961Y-65234700D01*
X117022039Y-65234700D01*
X117022035Y-65234700D01*
X116883949Y-65275246D01*
X116883942Y-65275249D01*
X116762873Y-65353055D01*
X116729874Y-65391139D01*
X116700072Y-65425531D01*
X116647678Y-65457127D01*
X116625254Y-65459700D01*
X113580576Y-65459700D01*
X113561262Y-65457798D01*
X113557889Y-65457127D01*
X113543692Y-65454303D01*
X113543691Y-65454303D01*
X113543689Y-65454303D01*
X113524383Y-65458142D01*
X113524374Y-65458145D01*
X113436198Y-65475684D01*
X113394224Y-65503729D01*
X113370653Y-65519478D01*
X113370650Y-65519482D01*
X113345069Y-65536575D01*
X113345065Y-65536579D01*
X113339519Y-65544880D01*
X113291469Y-65582759D01*
X113257205Y-65588877D01*
X113117550Y-65588877D01*
X112979464Y-65629423D01*
X112979457Y-65629426D01*
X112858388Y-65707232D01*
X112764137Y-65816005D01*
X112704349Y-65946920D01*
X112683868Y-66089374D01*
X112683868Y-66089379D01*
X112704349Y-66231833D01*
X112748688Y-66328920D01*
X112755663Y-66389707D01*
X112725577Y-66442984D01*
X112669921Y-66468402D01*
X112658635Y-66469047D01*
X112321666Y-66469047D01*
X112263475Y-66450140D01*
X112251662Y-66440051D01*
X112242097Y-66430486D01*
X112214320Y-66375969D01*
X112214109Y-66346392D01*
X112221642Y-66294001D01*
X112221642Y-66293997D01*
X112201160Y-66151543D01*
X112194975Y-66137999D01*
X112141372Y-66020627D01*
X112047123Y-65911857D01*
X112047122Y-65911856D01*
X112047121Y-65911855D01*
X111926052Y-65834049D01*
X111926049Y-65834047D01*
X111926048Y-65834047D01*
X111923235Y-65833221D01*
X111787959Y-65793500D01*
X111787956Y-65793500D01*
X111707625Y-65793500D01*
X111649434Y-65774593D01*
X111613470Y-65725093D01*
X111613470Y-65663907D01*
X111637621Y-65624496D01*
X111933355Y-65328762D01*
X112891475Y-64370640D01*
X112906471Y-64358334D01*
X112921366Y-64348383D01*
X112941820Y-64317773D01*
X112982257Y-64257254D01*
X113003639Y-64149759D01*
X113001680Y-64139911D01*
X113000144Y-64132186D01*
X112998242Y-64112874D01*
X112998242Y-63200380D01*
X113017149Y-63142189D01*
X113027227Y-63130388D01*
X113144120Y-63013494D01*
X113198635Y-62985719D01*
X113214122Y-62984500D01*
X113355959Y-62984500D01*
X113355961Y-62984500D01*
X113494053Y-62943953D01*
X113615128Y-62866143D01*
X113709377Y-62757373D01*
X113769165Y-62626457D01*
X113783008Y-62530174D01*
X113789647Y-62484002D01*
X113789647Y-62483997D01*
X113769165Y-62341543D01*
X113740167Y-62278047D01*
X113709377Y-62210627D01*
X113666661Y-62161330D01*
X113642845Y-62104971D01*
X113656704Y-62045376D01*
X113702945Y-62005308D01*
X113741482Y-61997500D01*
X113974612Y-61997500D01*
X114032803Y-62016407D01*
G37*
%TD.AperFunction*%
%TA.AperFunction,Conductor*%
G36*
X124655872Y-57872241D02*
G01*
X124691836Y-57921741D01*
X124695673Y-57966423D01*
X124676061Y-58102831D01*
X124676061Y-58102836D01*
X124696542Y-58245290D01*
X124756331Y-58376207D01*
X124850582Y-58484980D01*
X124855935Y-58489618D01*
X124854380Y-58491411D01*
X124886233Y-58530361D01*
X124892980Y-58566284D01*
X124892980Y-59472595D01*
X124891078Y-59491907D01*
X124887583Y-59509479D01*
X124887583Y-59509482D01*
X124891791Y-59530642D01*
X124891796Y-59530662D01*
X124892980Y-59536612D01*
X124892980Y-59536613D01*
X124908965Y-59616975D01*
X124908966Y-59616976D01*
X124908966Y-59616978D01*
X124965477Y-59701551D01*
X124969856Y-59708104D01*
X124984747Y-59718054D01*
X124999749Y-59730365D01*
X127584504Y-62315120D01*
X127612281Y-62369637D01*
X127613500Y-62385124D01*
X127613500Y-62584464D01*
X127594593Y-62642655D01*
X127545093Y-62678619D01*
X127483907Y-62678619D01*
X127434407Y-62642655D01*
X127424447Y-62625591D01*
X127389174Y-62548356D01*
X127380870Y-62530173D01*
X127286621Y-62421403D01*
X127286620Y-62421402D01*
X127286619Y-62421401D01*
X127165550Y-62343595D01*
X127165547Y-62343593D01*
X127165546Y-62343593D01*
X127165543Y-62343592D01*
X127027457Y-62303046D01*
X127027454Y-62303046D01*
X126883532Y-62303046D01*
X126883528Y-62303046D01*
X126745442Y-62343592D01*
X126745435Y-62343595D01*
X126624369Y-62421400D01*
X126624368Y-62421401D01*
X126624365Y-62421403D01*
X126586911Y-62464628D01*
X126583229Y-62468877D01*
X126530833Y-62500473D01*
X126508410Y-62503046D01*
X124896100Y-62503046D01*
X124882420Y-62500813D01*
X124882250Y-62502039D01*
X124873166Y-62500771D01*
X124832823Y-62502637D01*
X124825118Y-62502993D01*
X124822842Y-62503046D01*
X124803088Y-62503046D01*
X124803074Y-62503047D01*
X124799590Y-62503698D01*
X124792785Y-62504487D01*
X124770295Y-62505527D01*
X124760941Y-62505960D01*
X124760940Y-62505960D01*
X124751943Y-62509933D01*
X124730154Y-62516680D01*
X124723614Y-62517902D01*
X124720498Y-62518485D01*
X124693399Y-62535263D01*
X124687330Y-62538462D01*
X124658166Y-62551339D01*
X124651218Y-62558288D01*
X124633338Y-62572451D01*
X124624980Y-62577626D01*
X124605771Y-62603061D01*
X124601267Y-62608238D01*
X123768417Y-63441088D01*
X123713900Y-63468865D01*
X123653468Y-63459294D01*
X123610203Y-63416029D01*
X123608360Y-63412210D01*
X123552378Y-63289629D01*
X123552377Y-63289628D01*
X123552377Y-63289627D01*
X123458128Y-63180857D01*
X123458127Y-63180856D01*
X123458126Y-63180855D01*
X123337057Y-63103049D01*
X123337054Y-63103047D01*
X123337053Y-63103047D01*
X123337050Y-63103046D01*
X123198964Y-63062500D01*
X123198961Y-63062500D01*
X123055039Y-63062500D01*
X123055035Y-63062500D01*
X122916949Y-63103046D01*
X122916942Y-63103049D01*
X122795873Y-63180855D01*
X122788342Y-63189547D01*
X122733072Y-63253331D01*
X122680678Y-63284927D01*
X122658254Y-63287500D01*
X122507124Y-63287500D01*
X122448933Y-63268593D01*
X122412969Y-63219093D01*
X122412969Y-63157907D01*
X122437120Y-63118496D01*
X122790713Y-62764903D01*
X123866733Y-61688881D01*
X123881729Y-61676575D01*
X123896624Y-61666624D01*
X123917670Y-61635128D01*
X123957515Y-61575495D01*
X123967882Y-61523376D01*
X123973500Y-61495133D01*
X123973500Y-61495132D01*
X123978897Y-61468000D01*
X123975549Y-61451168D01*
X123982741Y-61390408D01*
X124019127Y-61348570D01*
X124029126Y-61342144D01*
X124029125Y-61342144D01*
X124029128Y-61342143D01*
X124123377Y-61233373D01*
X124183165Y-61102457D01*
X124196739Y-61008047D01*
X124203647Y-60960002D01*
X124203647Y-60959997D01*
X124183165Y-60817543D01*
X124144508Y-60732897D01*
X124123377Y-60686627D01*
X124029128Y-60577857D01*
X124029127Y-60577856D01*
X124029126Y-60577855D01*
X123908057Y-60500049D01*
X123908054Y-60500047D01*
X123908053Y-60500047D01*
X123908050Y-60500046D01*
X123769964Y-60459500D01*
X123769961Y-60459500D01*
X123626039Y-60459500D01*
X123626035Y-60459500D01*
X123487949Y-60500046D01*
X123487942Y-60500049D01*
X123366873Y-60577855D01*
X123272622Y-60686628D01*
X123212834Y-60817543D01*
X123192353Y-60959997D01*
X123192353Y-60960002D01*
X123212834Y-61102456D01*
X123272623Y-61233373D01*
X123337786Y-61308576D01*
X123361604Y-61364935D01*
X123347745Y-61424531D01*
X123332971Y-61443411D01*
X121817880Y-62958504D01*
X121763363Y-62986281D01*
X121747876Y-62987500D01*
X117678027Y-62987500D01*
X117619836Y-62968593D01*
X117583872Y-62919093D01*
X117580035Y-62874411D01*
X117599647Y-62738002D01*
X117599647Y-62737997D01*
X117579165Y-62595543D01*
X117562608Y-62559289D01*
X117519377Y-62464627D01*
X117425128Y-62355857D01*
X117425127Y-62355856D01*
X117425126Y-62355855D01*
X117304057Y-62278049D01*
X117304054Y-62278047D01*
X117304053Y-62278047D01*
X117290720Y-62274132D01*
X117165964Y-62237500D01*
X117158954Y-62236493D01*
X117159232Y-62234553D01*
X117110111Y-62218593D01*
X117074147Y-62169093D01*
X117070310Y-62124411D01*
X117091647Y-61976003D01*
X117091647Y-61975997D01*
X117071165Y-61833543D01*
X117049979Y-61787152D01*
X117011377Y-61702627D01*
X116917128Y-61593857D01*
X116917127Y-61593856D01*
X116917126Y-61593855D01*
X116796057Y-61516049D01*
X116796054Y-61516047D01*
X116796053Y-61516047D01*
X116796050Y-61516046D01*
X116657964Y-61475500D01*
X116657961Y-61475500D01*
X116516124Y-61475500D01*
X116457933Y-61456593D01*
X116446120Y-61446504D01*
X115896120Y-60896504D01*
X115868343Y-60841987D01*
X115877914Y-60781555D01*
X115921179Y-60738290D01*
X115966124Y-60727500D01*
X121121116Y-60727500D01*
X121140429Y-60729401D01*
X121158000Y-60732897D01*
X121185132Y-60727500D01*
X121185133Y-60727500D01*
X121265495Y-60711515D01*
X121302742Y-60686627D01*
X121322772Y-60673244D01*
X121344345Y-60658830D01*
X121344348Y-60658825D01*
X121356624Y-60650624D01*
X121366577Y-60635727D01*
X121378881Y-60620734D01*
X124117286Y-57882330D01*
X124171803Y-57854553D01*
X124187290Y-57853334D01*
X124597681Y-57853334D01*
X124655872Y-57872241D01*
G37*
%TD.AperFunction*%
%TA.AperFunction,Conductor*%
G36*
X119265642Y-55632459D02*
G01*
X119302571Y-55681243D01*
X119304662Y-55688056D01*
X119360048Y-55894759D01*
X119459878Y-56108847D01*
X119595365Y-56302343D01*
X119762405Y-56469383D01*
X119955901Y-56604870D01*
X120169988Y-56704700D01*
X120383479Y-56761904D01*
X120383479Y-55866771D01*
X120491164Y-55915950D01*
X120597716Y-55931270D01*
X120669242Y-55931270D01*
X120775794Y-55915950D01*
X120883479Y-55866771D01*
X120883479Y-56761903D01*
X121096969Y-56704700D01*
X121311056Y-56604870D01*
X121504552Y-56469383D01*
X121671592Y-56302343D01*
X121807080Y-56108846D01*
X121807081Y-56108844D01*
X121813754Y-56094535D01*
X121855482Y-56049786D01*
X121915543Y-56038111D01*
X121970996Y-56063968D01*
X121993204Y-56094535D01*
X121999876Y-56108844D01*
X121999877Y-56108846D01*
X122135365Y-56302343D01*
X122302405Y-56469383D01*
X122495901Y-56604870D01*
X122709988Y-56704700D01*
X122923479Y-56761904D01*
X122923479Y-55866771D01*
X123031164Y-55915950D01*
X123137716Y-55931270D01*
X123209242Y-55931270D01*
X123315794Y-55915950D01*
X123423479Y-55866771D01*
X123423479Y-56761903D01*
X123636974Y-56704699D01*
X123822732Y-56618079D01*
X123883461Y-56610622D01*
X123936975Y-56640285D01*
X123962833Y-56695738D01*
X123951158Y-56755799D01*
X123934575Y-56777807D01*
X120864880Y-59847504D01*
X120810363Y-59875281D01*
X120794876Y-59876500D01*
X120472099Y-59876500D01*
X120413908Y-59857593D01*
X120377944Y-59808093D01*
X120374107Y-59763411D01*
X120393647Y-59627503D01*
X120393647Y-59627497D01*
X120373165Y-59485043D01*
X120367480Y-59472595D01*
X120313377Y-59354127D01*
X120219128Y-59245357D01*
X120208975Y-59238832D01*
X120170245Y-59191467D01*
X120163500Y-59155549D01*
X120163500Y-59091883D01*
X120165402Y-59072569D01*
X120168897Y-59055000D01*
X120149416Y-58957067D01*
X120148936Y-58952193D01*
X120147515Y-58947506D01*
X120147515Y-58947505D01*
X120086624Y-58856376D01*
X120071733Y-58846426D01*
X120056731Y-58834115D01*
X117863162Y-56640546D01*
X117835385Y-56586029D01*
X117844956Y-56525597D01*
X117888221Y-56482332D01*
X117942869Y-56472019D01*
X117983669Y-56476037D01*
X118093476Y-56486853D01*
X118093479Y-56486853D01*
X118093482Y-56486853D01*
X118299408Y-56466571D01*
X118299413Y-56466570D01*
X118315309Y-56461748D01*
X118497433Y-56406502D01*
X118679929Y-56308955D01*
X118839889Y-56177680D01*
X118971164Y-56017720D01*
X119068711Y-55835224D01*
X119114298Y-55684940D01*
X119149283Y-55634744D01*
X119207091Y-55614698D01*
X119265642Y-55632459D01*
G37*
%TD.AperFunction*%
%TA.AperFunction,Conductor*%
G36*
X125687859Y-58505727D02*
G01*
X125620268Y-58595232D01*
X125589574Y-58703110D01*
X125599923Y-58814791D01*
X125649917Y-58915192D01*
X125722400Y-58981270D01*
X125542980Y-58981270D01*
X125484789Y-58962363D01*
X125448825Y-58912863D01*
X125443980Y-58882270D01*
X125443980Y-58583285D01*
X125462887Y-58525094D01*
X125489466Y-58499995D01*
X125494162Y-58496978D01*
X125547673Y-58481270D01*
X125727358Y-58481270D01*
X125687859Y-58505727D01*
G37*
%TD.AperFunction*%
%TA.AperFunction,Conductor*%
G36*
X122713986Y-55221426D02*
G01*
X122673479Y-55359381D01*
X122673479Y-55503159D01*
X122713986Y-55641114D01*
X122739793Y-55681270D01*
X121067165Y-55681270D01*
X121092972Y-55641114D01*
X121133479Y-55503159D01*
X121133479Y-55359381D01*
X121092972Y-55221426D01*
X121067165Y-55181270D01*
X122739793Y-55181270D01*
X122713986Y-55221426D01*
G37*
%TD.AperFunction*%
%TD*%
M02*
