%TF.GenerationSoftware,KiCad,Pcbnew,7.0.9*%
%TF.CreationDate,2023-12-31T12:54:37+01:00*%
%TF.ProjectId,esp32promicro,65737033-3270-4726-9f6d-6963726f2e6b,rev?*%
%TF.SameCoordinates,Original*%
%TF.FileFunction,Soldermask,Top*%
%TF.FilePolarity,Negative*%
%FSLAX46Y46*%
G04 Gerber Fmt 4.6, Leading zero omitted, Abs format (unit mm)*
G04 Created by KiCad (PCBNEW 7.0.9) date 2023-12-31 12:54:37*
%MOMM*%
%LPD*%
G01*
G04 APERTURE LIST*
G04 Aperture macros list*
%AMRoundRect*
0 Rectangle with rounded corners*
0 $1 Rounding radius*
0 $2 $3 $4 $5 $6 $7 $8 $9 X,Y pos of 4 corners*
0 Add a 4 corners polygon primitive as box body*
4,1,4,$2,$3,$4,$5,$6,$7,$8,$9,$2,$3,0*
0 Add four circle primitives for the rounded corners*
1,1,$1+$1,$2,$3*
1,1,$1+$1,$4,$5*
1,1,$1+$1,$6,$7*
1,1,$1+$1,$8,$9*
0 Add four rect primitives between the rounded corners*
20,1,$1+$1,$2,$3,$4,$5,0*
20,1,$1+$1,$4,$5,$6,$7,0*
20,1,$1+$1,$6,$7,$8,$9,0*
20,1,$1+$1,$8,$9,$2,$3,0*%
G04 Aperture macros list end*
%ADD10R,1.200000X1.200000*%
%ADD11O,2.040000X0.570000*%
%ADD12RoundRect,0.225000X0.250000X-0.225000X0.250000X0.225000X-0.250000X0.225000X-0.250000X-0.225000X0*%
%ADD13RoundRect,0.200000X-0.200000X-0.275000X0.200000X-0.275000X0.200000X0.275000X-0.200000X0.275000X0*%
%ADD14RoundRect,0.200000X0.200000X0.275000X-0.200000X0.275000X-0.200000X-0.275000X0.200000X-0.275000X0*%
%ADD15RoundRect,0.200000X0.275000X-0.200000X0.275000X0.200000X-0.275000X0.200000X-0.275000X-0.200000X0*%
%ADD16R,0.900000X0.600000*%
%ADD17C,0.610000*%
%ADD18R,0.660000X0.200000*%
%ADD19R,0.200000X0.660000*%
%ADD20R,4.000000X4.000000*%
%ADD21RoundRect,0.200000X-0.275000X0.200000X-0.275000X-0.200000X0.275000X-0.200000X0.275000X0.200000X0*%
%ADD22RoundRect,0.225000X-0.225000X-0.250000X0.225000X-0.250000X0.225000X0.250000X-0.225000X0.250000X0*%
%ADD23RoundRect,0.225000X-0.250000X0.225000X-0.250000X-0.225000X0.250000X-0.225000X0.250000X0.225000X0*%
%ADD24RoundRect,0.225000X0.225000X0.250000X-0.225000X0.250000X-0.225000X-0.250000X0.225000X-0.250000X0*%
%ADD25RoundRect,0.218750X0.256250X-0.218750X0.256250X0.218750X-0.256250X0.218750X-0.256250X-0.218750X0*%
%ADD26R,1.250000X0.700000*%
%ADD27R,1.000000X0.600000*%
%ADD28R,2.200000X1.500000*%
%ADD29C,0.650000*%
%ADD30O,2.100000X1.000000*%
%ADD31O,1.800000X1.000000*%
%ADD32R,1.150000X0.600000*%
%ADD33R,1.150000X0.300000*%
%ADD34R,0.650000X0.800000*%
%ADD35R,1.400000X1.200000*%
%ADD36RoundRect,0.218750X0.218750X0.256250X-0.218750X0.256250X-0.218750X-0.256250X0.218750X-0.256250X0*%
%ADD37R,1.700000X1.700000*%
%ADD38O,1.700000X1.700000*%
G04 APERTURE END LIST*
D10*
%TO.C,J3*%
X103251000Y-66167000D03*
%TD*%
%TO.C,J4*%
X103251000Y-67818000D03*
%TD*%
D11*
%TO.C,U2*%
X120418033Y-66594285D03*
X120418033Y-65314285D03*
X120418033Y-64054285D03*
X120418033Y-62784285D03*
X114878033Y-62784285D03*
X114878033Y-64054285D03*
X114878033Y-65314285D03*
X114878033Y-66594285D03*
%TD*%
D12*
%TO.C,C5*%
X108187479Y-59957000D03*
X108187479Y-58407000D03*
%TD*%
D13*
%TO.C,R6*%
X122111000Y-62992000D03*
X123761000Y-62992000D03*
%TD*%
D14*
%TO.C,R7*%
X123761000Y-64465200D03*
X122111000Y-64465200D03*
%TD*%
D15*
%TO.C,R3*%
X131672663Y-57027943D03*
X131672663Y-55377943D03*
%TD*%
D16*
%TO.C,SW1*%
X120887480Y-59241269D03*
X120887480Y-58081269D03*
X117887480Y-59241269D03*
X117887480Y-58081269D03*
%TD*%
D17*
%TO.C,U1*%
X108079477Y-63645823D03*
X108079477Y-64645823D03*
X108079477Y-65645823D03*
X109079477Y-63645823D03*
X109079477Y-64645823D03*
X109079477Y-65645823D03*
X110079477Y-63645823D03*
X110079477Y-64645823D03*
X110079477Y-65645823D03*
D18*
X105669477Y-62045823D03*
X105669477Y-62445823D03*
X105669477Y-62845823D03*
X105669477Y-63245823D03*
X105669477Y-63645823D03*
X105669477Y-64045823D03*
X105669477Y-64445823D03*
X105669477Y-64845823D03*
X105669477Y-65245823D03*
X105669477Y-65645823D03*
X105669477Y-66045823D03*
X105669477Y-66445823D03*
X105669477Y-66845823D03*
X105669477Y-67245823D03*
D19*
X106479477Y-68055823D03*
X106879477Y-68055823D03*
X107279477Y-68055823D03*
X107679477Y-68055823D03*
X108079477Y-68055823D03*
X108479477Y-68055823D03*
X108879477Y-68055823D03*
X109279477Y-68055823D03*
X109679477Y-68055823D03*
X110079477Y-68055823D03*
X110479477Y-68055823D03*
X110879477Y-68055823D03*
X111279477Y-68055823D03*
X111679477Y-68055823D03*
D18*
X112489477Y-67245823D03*
X112489477Y-66845823D03*
X112489477Y-66445823D03*
X112489477Y-66045823D03*
X112489477Y-65645823D03*
X112489477Y-65245823D03*
X112489477Y-64845823D03*
X112489477Y-64445823D03*
X112489477Y-64045823D03*
X112489477Y-63645823D03*
X112489477Y-63245823D03*
X112489477Y-62845823D03*
X112489477Y-62445823D03*
X112489477Y-62045823D03*
D19*
X111679477Y-61235823D03*
X111279477Y-61235823D03*
X110879477Y-61235823D03*
X110479477Y-61235823D03*
X110079477Y-61235823D03*
X109679477Y-61235823D03*
X109279477Y-61235823D03*
X108879477Y-61235823D03*
X108479477Y-61235823D03*
X108079477Y-61235823D03*
X107679477Y-61235823D03*
X107279477Y-61235823D03*
X106879477Y-61235823D03*
X106479477Y-61235823D03*
D20*
X109079477Y-64645823D03*
%TD*%
D21*
%TO.C,R2*%
X130078000Y-69152001D03*
X130078000Y-70802001D03*
%TD*%
D16*
%TO.C,SW3*%
X117863479Y-60185270D03*
X117863479Y-61345270D03*
X120863479Y-60185270D03*
X120863479Y-61345270D03*
%TD*%
D22*
%TO.C,C3*%
X115032479Y-58034270D03*
X116582479Y-58034270D03*
%TD*%
D23*
%TO.C,C8*%
X101828600Y-66611200D03*
X101828600Y-68161200D03*
%TD*%
D24*
%TO.C,C1*%
X120866200Y-67919600D03*
X119316200Y-67919600D03*
%TD*%
D22*
%TO.C,C6*%
X113372600Y-67919600D03*
X114922600Y-67919600D03*
%TD*%
D15*
%TO.C,R4*%
X115045480Y-61145270D03*
X115045480Y-59495270D03*
%TD*%
D12*
%TO.C,C2*%
X116569478Y-61095268D03*
X116569478Y-59545268D03*
%TD*%
D25*
%TO.C,D1*%
X130200400Y-56972300D03*
X130200400Y-55397300D03*
%TD*%
D26*
%TO.C,U3*%
X122427479Y-65852000D03*
X122427479Y-67752000D03*
X124427479Y-66802000D03*
%TD*%
D21*
%TO.C,R1*%
X131572000Y-69152000D03*
X131572000Y-70802000D03*
%TD*%
D27*
%TO.C,U5*%
X124617000Y-59705200D03*
X124617000Y-61605200D03*
X122017000Y-61605200D03*
X122017000Y-60655200D03*
X122017000Y-59705200D03*
%TD*%
D13*
%TO.C,R5*%
X116294400Y-67919600D03*
X117944400Y-67919600D03*
%TD*%
D28*
%TO.C,L1*%
X100838000Y-63624600D03*
X100838000Y-58244600D03*
%TD*%
D29*
%TO.C,U4*%
X126943480Y-65941270D03*
X126943480Y-60161270D03*
D30*
X126443480Y-67371270D03*
X126443480Y-58731270D03*
D31*
X130623480Y-67371270D03*
X130623480Y-58731270D03*
D32*
X125883480Y-66251270D03*
X125883480Y-65451270D03*
D33*
X125883480Y-64301270D03*
X125883480Y-63301270D03*
X125883480Y-62801270D03*
X125883480Y-61801270D03*
D32*
X125883480Y-59851270D03*
X125883480Y-60651270D03*
D33*
X125883480Y-61301270D03*
X125883480Y-62301270D03*
X125883480Y-63801270D03*
X125883480Y-64801270D03*
%TD*%
D23*
%TO.C,C7*%
X100304600Y-66611200D03*
X100304600Y-68161200D03*
%TD*%
D34*
%TO.C,LED1*%
X106608349Y-58706388D03*
X106608349Y-60206388D03*
X105768349Y-58706388D03*
X105768349Y-60206388D03*
%TD*%
D35*
%TO.C,CRYSTAL1*%
X111911479Y-58303270D03*
X109711479Y-58303270D03*
X109711479Y-60003270D03*
X111911479Y-60003270D03*
%TD*%
D12*
%TO.C,C4*%
X113521478Y-60016269D03*
X113521478Y-58466269D03*
%TD*%
D36*
%TO.C,L2*%
X101854000Y-65151000D03*
X100279000Y-65151000D03*
%TD*%
D14*
%TO.C,R9*%
X122605000Y-58280000D03*
X124255000Y-58280000D03*
%TD*%
D37*
%TO.C,J2*%
X128269480Y-70671269D03*
D38*
X125729480Y-70671269D03*
X123189480Y-70671269D03*
X120649480Y-70671269D03*
X118109480Y-70671269D03*
X115569480Y-70671269D03*
X113029480Y-70671269D03*
X110489480Y-70671269D03*
X107949480Y-70671269D03*
X105409480Y-70671269D03*
X102869480Y-70671269D03*
X100329480Y-70671269D03*
%TD*%
D37*
%TO.C,J1*%
X128253479Y-55431270D03*
D38*
X125713479Y-55431270D03*
X123173479Y-55431270D03*
X120633479Y-55431270D03*
X118093479Y-55431270D03*
X115553479Y-55431270D03*
X113013479Y-55431270D03*
X110473479Y-55431270D03*
X107933479Y-55431270D03*
X105393479Y-55431270D03*
X102853479Y-55431270D03*
X100313479Y-55431270D03*
%TD*%
M02*
