%TF.GenerationSoftware,KiCad,Pcbnew,7.0.9*%
%TF.CreationDate,2023-12-31T12:54:37+01:00*%
%TF.ProjectId,esp32promicro,65737033-3270-4726-9f6d-6963726f2e6b,rev?*%
%TF.SameCoordinates,Original*%
%TF.FileFunction,Legend,Top*%
%TF.FilePolarity,Positive*%
%FSLAX46Y46*%
G04 Gerber Fmt 4.6, Leading zero omitted, Abs format (unit mm)*
G04 Created by KiCad (PCBNEW 7.0.9) date 2023-12-31 12:54:37*
%MOMM*%
%LPD*%
G01*
G04 APERTURE LIST*
%ADD10C,0.125000*%
%ADD11C,0.075000*%
%ADD12C,0.127000*%
%ADD13C,0.375000*%
%ADD14C,0.190500*%
%ADD15C,0.150000*%
%ADD16C,0.300000*%
%ADD17C,0.120000*%
%ADD18C,0.250000*%
%ADD19C,0.100000*%
G04 APERTURE END LIST*
D10*
X104556880Y-67900188D02*
X104580690Y-67852569D01*
X104580690Y-67852569D02*
X104580690Y-67781140D01*
X104580690Y-67781140D02*
X104556880Y-67709712D01*
X104556880Y-67709712D02*
X104509261Y-67662093D01*
X104509261Y-67662093D02*
X104461642Y-67638283D01*
X104461642Y-67638283D02*
X104366404Y-67614474D01*
X104366404Y-67614474D02*
X104294976Y-67614474D01*
X104294976Y-67614474D02*
X104199738Y-67638283D01*
X104199738Y-67638283D02*
X104152119Y-67662093D01*
X104152119Y-67662093D02*
X104104500Y-67709712D01*
X104104500Y-67709712D02*
X104080690Y-67781140D01*
X104080690Y-67781140D02*
X104080690Y-67828759D01*
X104080690Y-67828759D02*
X104104500Y-67900188D01*
X104104500Y-67900188D02*
X104128309Y-67923997D01*
X104128309Y-67923997D02*
X104294976Y-67923997D01*
X104294976Y-67923997D02*
X104294976Y-67828759D01*
X104342595Y-65772950D02*
X104318785Y-65844378D01*
X104318785Y-65844378D02*
X104294976Y-65868188D01*
X104294976Y-65868188D02*
X104247357Y-65891997D01*
X104247357Y-65891997D02*
X104175928Y-65891997D01*
X104175928Y-65891997D02*
X104128309Y-65868188D01*
X104128309Y-65868188D02*
X104104500Y-65844378D01*
X104104500Y-65844378D02*
X104080690Y-65796759D01*
X104080690Y-65796759D02*
X104080690Y-65606283D01*
X104080690Y-65606283D02*
X104580690Y-65606283D01*
X104580690Y-65606283D02*
X104580690Y-65772950D01*
X104580690Y-65772950D02*
X104556880Y-65820569D01*
X104556880Y-65820569D02*
X104533071Y-65844378D01*
X104533071Y-65844378D02*
X104485452Y-65868188D01*
X104485452Y-65868188D02*
X104437833Y-65868188D01*
X104437833Y-65868188D02*
X104390214Y-65844378D01*
X104390214Y-65844378D02*
X104366404Y-65820569D01*
X104366404Y-65820569D02*
X104342595Y-65772950D01*
X104342595Y-65772950D02*
X104342595Y-65606283D01*
X104223547Y-66082474D02*
X104223547Y-66320569D01*
X104080690Y-66034855D02*
X104580690Y-66201521D01*
X104580690Y-66201521D02*
X104080690Y-66368188D01*
X104580690Y-66463426D02*
X104580690Y-66749140D01*
X104080690Y-66606283D02*
X104580690Y-66606283D01*
D11*
X102457125Y-57898698D02*
X102757125Y-57898698D01*
X102757125Y-57898698D02*
X102757125Y-57970127D01*
X102757125Y-57970127D02*
X102742839Y-58012984D01*
X102742839Y-58012984D02*
X102714268Y-58041555D01*
X102714268Y-58041555D02*
X102685696Y-58055841D01*
X102685696Y-58055841D02*
X102628553Y-58070127D01*
X102628553Y-58070127D02*
X102585696Y-58070127D01*
X102585696Y-58070127D02*
X102528553Y-58055841D01*
X102528553Y-58055841D02*
X102499982Y-58041555D01*
X102499982Y-58041555D02*
X102471411Y-58012984D01*
X102471411Y-58012984D02*
X102457125Y-57970127D01*
X102457125Y-57970127D02*
X102457125Y-57898698D01*
X102471411Y-58312984D02*
X102457125Y-58284412D01*
X102457125Y-58284412D02*
X102457125Y-58227270D01*
X102457125Y-58227270D02*
X102471411Y-58198698D01*
X102471411Y-58198698D02*
X102499982Y-58184412D01*
X102499982Y-58184412D02*
X102614268Y-58184412D01*
X102614268Y-58184412D02*
X102642839Y-58198698D01*
X102642839Y-58198698D02*
X102657125Y-58227270D01*
X102657125Y-58227270D02*
X102657125Y-58284412D01*
X102657125Y-58284412D02*
X102642839Y-58312984D01*
X102642839Y-58312984D02*
X102614268Y-58327270D01*
X102614268Y-58327270D02*
X102585696Y-58327270D01*
X102585696Y-58327270D02*
X102557125Y-58184412D01*
X102471411Y-58441555D02*
X102457125Y-58470127D01*
X102457125Y-58470127D02*
X102457125Y-58527270D01*
X102457125Y-58527270D02*
X102471411Y-58555841D01*
X102471411Y-58555841D02*
X102499982Y-58570127D01*
X102499982Y-58570127D02*
X102514268Y-58570127D01*
X102514268Y-58570127D02*
X102542839Y-58555841D01*
X102542839Y-58555841D02*
X102557125Y-58527270D01*
X102557125Y-58527270D02*
X102557125Y-58484413D01*
X102557125Y-58484413D02*
X102571411Y-58455841D01*
X102571411Y-58455841D02*
X102599982Y-58441555D01*
X102599982Y-58441555D02*
X102614268Y-58441555D01*
X102614268Y-58441555D02*
X102642839Y-58455841D01*
X102642839Y-58455841D02*
X102657125Y-58484413D01*
X102657125Y-58484413D02*
X102657125Y-58527270D01*
X102657125Y-58527270D02*
X102642839Y-58555841D01*
X102457125Y-58698698D02*
X102657125Y-58698698D01*
X102757125Y-58698698D02*
X102742839Y-58684412D01*
X102742839Y-58684412D02*
X102728553Y-58698698D01*
X102728553Y-58698698D02*
X102742839Y-58712984D01*
X102742839Y-58712984D02*
X102757125Y-58698698D01*
X102757125Y-58698698D02*
X102728553Y-58698698D01*
X102657125Y-58970127D02*
X102414268Y-58970127D01*
X102414268Y-58970127D02*
X102385696Y-58955841D01*
X102385696Y-58955841D02*
X102371411Y-58941555D01*
X102371411Y-58941555D02*
X102357125Y-58912984D01*
X102357125Y-58912984D02*
X102357125Y-58870127D01*
X102357125Y-58870127D02*
X102371411Y-58841555D01*
X102471411Y-58970127D02*
X102457125Y-58941555D01*
X102457125Y-58941555D02*
X102457125Y-58884412D01*
X102457125Y-58884412D02*
X102471411Y-58855841D01*
X102471411Y-58855841D02*
X102485696Y-58841555D01*
X102485696Y-58841555D02*
X102514268Y-58827269D01*
X102514268Y-58827269D02*
X102599982Y-58827269D01*
X102599982Y-58827269D02*
X102628553Y-58841555D01*
X102628553Y-58841555D02*
X102642839Y-58855841D01*
X102642839Y-58855841D02*
X102657125Y-58884412D01*
X102657125Y-58884412D02*
X102657125Y-58941555D01*
X102657125Y-58941555D02*
X102642839Y-58970127D01*
X102657125Y-59112984D02*
X102457125Y-59112984D01*
X102628553Y-59112984D02*
X102642839Y-59127270D01*
X102642839Y-59127270D02*
X102657125Y-59155841D01*
X102657125Y-59155841D02*
X102657125Y-59198698D01*
X102657125Y-59198698D02*
X102642839Y-59227270D01*
X102642839Y-59227270D02*
X102614268Y-59241556D01*
X102614268Y-59241556D02*
X102457125Y-59241556D01*
X102471411Y-59498699D02*
X102457125Y-59470127D01*
X102457125Y-59470127D02*
X102457125Y-59412985D01*
X102457125Y-59412985D02*
X102471411Y-59384413D01*
X102471411Y-59384413D02*
X102499982Y-59370127D01*
X102499982Y-59370127D02*
X102614268Y-59370127D01*
X102614268Y-59370127D02*
X102642839Y-59384413D01*
X102642839Y-59384413D02*
X102657125Y-59412985D01*
X102657125Y-59412985D02*
X102657125Y-59470127D01*
X102657125Y-59470127D02*
X102642839Y-59498699D01*
X102642839Y-59498699D02*
X102614268Y-59512985D01*
X102614268Y-59512985D02*
X102585696Y-59512985D01*
X102585696Y-59512985D02*
X102557125Y-59370127D01*
X102457125Y-59770128D02*
X102757125Y-59770128D01*
X102471411Y-59770128D02*
X102457125Y-59741556D01*
X102457125Y-59741556D02*
X102457125Y-59684413D01*
X102457125Y-59684413D02*
X102471411Y-59655842D01*
X102471411Y-59655842D02*
X102485696Y-59641556D01*
X102485696Y-59641556D02*
X102514268Y-59627270D01*
X102514268Y-59627270D02*
X102599982Y-59627270D01*
X102599982Y-59627270D02*
X102628553Y-59641556D01*
X102628553Y-59641556D02*
X102642839Y-59655842D01*
X102642839Y-59655842D02*
X102657125Y-59684413D01*
X102657125Y-59684413D02*
X102657125Y-59741556D01*
X102657125Y-59741556D02*
X102642839Y-59770128D01*
X102457125Y-60141556D02*
X102757125Y-60141556D01*
X102642839Y-60141556D02*
X102657125Y-60170128D01*
X102657125Y-60170128D02*
X102657125Y-60227270D01*
X102657125Y-60227270D02*
X102642839Y-60255842D01*
X102642839Y-60255842D02*
X102628553Y-60270128D01*
X102628553Y-60270128D02*
X102599982Y-60284413D01*
X102599982Y-60284413D02*
X102514268Y-60284413D01*
X102514268Y-60284413D02*
X102485696Y-60270128D01*
X102485696Y-60270128D02*
X102471411Y-60255842D01*
X102471411Y-60255842D02*
X102457125Y-60227270D01*
X102457125Y-60227270D02*
X102457125Y-60170128D01*
X102457125Y-60170128D02*
X102471411Y-60141556D01*
X102657125Y-60384414D02*
X102457125Y-60455842D01*
X102657125Y-60527271D02*
X102457125Y-60455842D01*
X102457125Y-60455842D02*
X102385696Y-60427271D01*
X102385696Y-60427271D02*
X102371411Y-60412985D01*
X102371411Y-60412985D02*
X102357125Y-60384414D01*
X102457125Y-60998699D02*
X102614268Y-60998699D01*
X102614268Y-60998699D02*
X102642839Y-60984413D01*
X102642839Y-60984413D02*
X102657125Y-60955841D01*
X102657125Y-60955841D02*
X102657125Y-60898699D01*
X102657125Y-60898699D02*
X102642839Y-60870127D01*
X102471411Y-60998699D02*
X102457125Y-60970127D01*
X102457125Y-60970127D02*
X102457125Y-60898699D01*
X102457125Y-60898699D02*
X102471411Y-60870127D01*
X102471411Y-60870127D02*
X102499982Y-60855841D01*
X102499982Y-60855841D02*
X102528553Y-60855841D01*
X102528553Y-60855841D02*
X102557125Y-60870127D01*
X102557125Y-60870127D02*
X102571411Y-60898699D01*
X102571411Y-60898699D02*
X102571411Y-60970127D01*
X102571411Y-60970127D02*
X102585696Y-60998699D01*
X102471411Y-61127270D02*
X102457125Y-61155842D01*
X102457125Y-61155842D02*
X102457125Y-61212985D01*
X102457125Y-61212985D02*
X102471411Y-61241556D01*
X102471411Y-61241556D02*
X102499982Y-61255842D01*
X102499982Y-61255842D02*
X102514268Y-61255842D01*
X102514268Y-61255842D02*
X102542839Y-61241556D01*
X102542839Y-61241556D02*
X102557125Y-61212985D01*
X102557125Y-61212985D02*
X102557125Y-61170128D01*
X102557125Y-61170128D02*
X102571411Y-61141556D01*
X102571411Y-61141556D02*
X102599982Y-61127270D01*
X102599982Y-61127270D02*
X102614268Y-61127270D01*
X102614268Y-61127270D02*
X102642839Y-61141556D01*
X102642839Y-61141556D02*
X102657125Y-61170128D01*
X102657125Y-61170128D02*
X102657125Y-61212985D01*
X102657125Y-61212985D02*
X102642839Y-61241556D01*
X102457125Y-61512985D02*
X102614268Y-61512985D01*
X102614268Y-61512985D02*
X102642839Y-61498699D01*
X102642839Y-61498699D02*
X102657125Y-61470127D01*
X102657125Y-61470127D02*
X102657125Y-61412985D01*
X102657125Y-61412985D02*
X102642839Y-61384413D01*
X102471411Y-61512985D02*
X102457125Y-61484413D01*
X102457125Y-61484413D02*
X102457125Y-61412985D01*
X102457125Y-61412985D02*
X102471411Y-61384413D01*
X102471411Y-61384413D02*
X102499982Y-61370127D01*
X102499982Y-61370127D02*
X102528553Y-61370127D01*
X102528553Y-61370127D02*
X102557125Y-61384413D01*
X102557125Y-61384413D02*
X102571411Y-61412985D01*
X102571411Y-61412985D02*
X102571411Y-61484413D01*
X102571411Y-61484413D02*
X102585696Y-61512985D01*
X102457125Y-61655842D02*
X102657125Y-61655842D01*
X102628553Y-61655842D02*
X102642839Y-61670128D01*
X102642839Y-61670128D02*
X102657125Y-61698699D01*
X102657125Y-61698699D02*
X102657125Y-61741556D01*
X102657125Y-61741556D02*
X102642839Y-61770128D01*
X102642839Y-61770128D02*
X102614268Y-61784414D01*
X102614268Y-61784414D02*
X102457125Y-61784414D01*
X102614268Y-61784414D02*
X102642839Y-61798699D01*
X102642839Y-61798699D02*
X102657125Y-61827271D01*
X102657125Y-61827271D02*
X102657125Y-61870128D01*
X102657125Y-61870128D02*
X102642839Y-61898699D01*
X102642839Y-61898699D02*
X102614268Y-61912985D01*
X102614268Y-61912985D02*
X102457125Y-61912985D01*
X102457125Y-62098699D02*
X102471411Y-62070128D01*
X102471411Y-62070128D02*
X102485696Y-62055842D01*
X102485696Y-62055842D02*
X102514268Y-62041556D01*
X102514268Y-62041556D02*
X102599982Y-62041556D01*
X102599982Y-62041556D02*
X102628553Y-62055842D01*
X102628553Y-62055842D02*
X102642839Y-62070128D01*
X102642839Y-62070128D02*
X102657125Y-62098699D01*
X102657125Y-62098699D02*
X102657125Y-62141556D01*
X102657125Y-62141556D02*
X102642839Y-62170128D01*
X102642839Y-62170128D02*
X102628553Y-62184414D01*
X102628553Y-62184414D02*
X102599982Y-62198699D01*
X102599982Y-62198699D02*
X102514268Y-62198699D01*
X102514268Y-62198699D02*
X102485696Y-62184414D01*
X102485696Y-62184414D02*
X102471411Y-62170128D01*
X102471411Y-62170128D02*
X102457125Y-62141556D01*
X102457125Y-62141556D02*
X102457125Y-62098699D01*
X102657125Y-62327271D02*
X102457125Y-62327271D01*
X102628553Y-62327271D02*
X102642839Y-62341557D01*
X102642839Y-62341557D02*
X102657125Y-62370128D01*
X102657125Y-62370128D02*
X102657125Y-62412985D01*
X102657125Y-62412985D02*
X102642839Y-62441557D01*
X102642839Y-62441557D02*
X102614268Y-62455843D01*
X102614268Y-62455843D02*
X102457125Y-62455843D01*
X102457125Y-62598700D02*
X102657125Y-62598700D01*
X102757125Y-62598700D02*
X102742839Y-62584414D01*
X102742839Y-62584414D02*
X102728553Y-62598700D01*
X102728553Y-62598700D02*
X102742839Y-62612986D01*
X102742839Y-62612986D02*
X102757125Y-62598700D01*
X102757125Y-62598700D02*
X102728553Y-62598700D01*
X102457125Y-62741557D02*
X102757125Y-62741557D01*
X102571411Y-62770129D02*
X102457125Y-62855843D01*
X102657125Y-62855843D02*
X102542839Y-62741557D01*
D12*
X120493876Y-57271992D02*
X120566448Y-57308278D01*
X120566448Y-57308278D02*
X120675305Y-57308278D01*
X120675305Y-57308278D02*
X120784162Y-57271992D01*
X120784162Y-57271992D02*
X120856733Y-57199421D01*
X120856733Y-57199421D02*
X120893019Y-57126849D01*
X120893019Y-57126849D02*
X120929305Y-56981706D01*
X120929305Y-56981706D02*
X120929305Y-56872849D01*
X120929305Y-56872849D02*
X120893019Y-56727706D01*
X120893019Y-56727706D02*
X120856733Y-56655135D01*
X120856733Y-56655135D02*
X120784162Y-56582564D01*
X120784162Y-56582564D02*
X120675305Y-56546278D01*
X120675305Y-56546278D02*
X120602733Y-56546278D01*
X120602733Y-56546278D02*
X120493876Y-56582564D01*
X120493876Y-56582564D02*
X120457590Y-56618849D01*
X120457590Y-56618849D02*
X120457590Y-56872849D01*
X120457590Y-56872849D02*
X120602733Y-56872849D01*
X125886123Y-68770427D02*
X125813552Y-68734141D01*
X125813552Y-68734141D02*
X125704694Y-68734141D01*
X125704694Y-68734141D02*
X125595837Y-68770427D01*
X125595837Y-68770427D02*
X125523266Y-68842998D01*
X125523266Y-68842998D02*
X125486980Y-68915570D01*
X125486980Y-68915570D02*
X125450694Y-69060713D01*
X125450694Y-69060713D02*
X125450694Y-69169570D01*
X125450694Y-69169570D02*
X125486980Y-69314713D01*
X125486980Y-69314713D02*
X125523266Y-69387284D01*
X125523266Y-69387284D02*
X125595837Y-69459856D01*
X125595837Y-69459856D02*
X125704694Y-69496141D01*
X125704694Y-69496141D02*
X125777266Y-69496141D01*
X125777266Y-69496141D02*
X125886123Y-69459856D01*
X125886123Y-69459856D02*
X125922409Y-69423570D01*
X125922409Y-69423570D02*
X125922409Y-69169570D01*
X125922409Y-69169570D02*
X125777266Y-69169570D01*
X105524224Y-57233960D02*
X105596796Y-57270246D01*
X105596796Y-57270246D02*
X105705653Y-57270246D01*
X105705653Y-57270246D02*
X105814510Y-57233960D01*
X105814510Y-57233960D02*
X105887081Y-57161389D01*
X105887081Y-57161389D02*
X105923367Y-57088817D01*
X105923367Y-57088817D02*
X105959653Y-56943674D01*
X105959653Y-56943674D02*
X105959653Y-56834817D01*
X105959653Y-56834817D02*
X105923367Y-56689674D01*
X105923367Y-56689674D02*
X105887081Y-56617103D01*
X105887081Y-56617103D02*
X105814510Y-56544532D01*
X105814510Y-56544532D02*
X105705653Y-56508246D01*
X105705653Y-56508246D02*
X105633081Y-56508246D01*
X105633081Y-56508246D02*
X105524224Y-56544532D01*
X105524224Y-56544532D02*
X105487938Y-56580817D01*
X105487938Y-56580817D02*
X105487938Y-56834817D01*
X105487938Y-56834817D02*
X105633081Y-56834817D01*
X105233938Y-57270246D02*
X104725938Y-57270246D01*
X104725938Y-57270246D02*
X105052510Y-56508246D01*
X125791590Y-56508245D02*
X126045590Y-56871102D01*
X126227019Y-56508245D02*
X126227019Y-57270245D01*
X126227019Y-57270245D02*
X125936733Y-57270245D01*
X125936733Y-57270245D02*
X125864162Y-57233959D01*
X125864162Y-57233959D02*
X125827876Y-57197673D01*
X125827876Y-57197673D02*
X125791590Y-57125102D01*
X125791590Y-57125102D02*
X125791590Y-57016245D01*
X125791590Y-57016245D02*
X125827876Y-56943673D01*
X125827876Y-56943673D02*
X125864162Y-56907388D01*
X125864162Y-56907388D02*
X125936733Y-56871102D01*
X125936733Y-56871102D02*
X126227019Y-56871102D01*
X125537590Y-57270245D02*
X125029590Y-56508245D01*
X125029590Y-57270245D02*
X125537590Y-56508245D01*
X108064225Y-57233960D02*
X108136797Y-57270246D01*
X108136797Y-57270246D02*
X108245654Y-57270246D01*
X108245654Y-57270246D02*
X108354511Y-57233960D01*
X108354511Y-57233960D02*
X108427082Y-57161389D01*
X108427082Y-57161389D02*
X108463368Y-57088817D01*
X108463368Y-57088817D02*
X108499654Y-56943674D01*
X108499654Y-56943674D02*
X108499654Y-56834817D01*
X108499654Y-56834817D02*
X108463368Y-56689674D01*
X108463368Y-56689674D02*
X108427082Y-56617103D01*
X108427082Y-56617103D02*
X108354511Y-56544532D01*
X108354511Y-56544532D02*
X108245654Y-56508246D01*
X108245654Y-56508246D02*
X108173082Y-56508246D01*
X108173082Y-56508246D02*
X108064225Y-56544532D01*
X108064225Y-56544532D02*
X108027939Y-56580817D01*
X108027939Y-56580817D02*
X108027939Y-56834817D01*
X108027939Y-56834817D02*
X108173082Y-56834817D01*
X107374797Y-57270246D02*
X107519939Y-57270246D01*
X107519939Y-57270246D02*
X107592511Y-57233960D01*
X107592511Y-57233960D02*
X107628797Y-57197674D01*
X107628797Y-57197674D02*
X107701368Y-57088817D01*
X107701368Y-57088817D02*
X107737654Y-56943674D01*
X107737654Y-56943674D02*
X107737654Y-56653389D01*
X107737654Y-56653389D02*
X107701368Y-56580817D01*
X107701368Y-56580817D02*
X107665082Y-56544532D01*
X107665082Y-56544532D02*
X107592511Y-56508246D01*
X107592511Y-56508246D02*
X107447368Y-56508246D01*
X107447368Y-56508246D02*
X107374797Y-56544532D01*
X107374797Y-56544532D02*
X107338511Y-56580817D01*
X107338511Y-56580817D02*
X107302225Y-56653389D01*
X107302225Y-56653389D02*
X107302225Y-56834817D01*
X107302225Y-56834817D02*
X107338511Y-56907389D01*
X107338511Y-56907389D02*
X107374797Y-56943674D01*
X107374797Y-56943674D02*
X107447368Y-56979960D01*
X107447368Y-56979960D02*
X107592511Y-56979960D01*
X107592511Y-56979960D02*
X107665082Y-56943674D01*
X107665082Y-56943674D02*
X107701368Y-56907389D01*
X107701368Y-56907389D02*
X107737654Y-56834817D01*
X110604225Y-57233960D02*
X110676797Y-57270246D01*
X110676797Y-57270246D02*
X110785654Y-57270246D01*
X110785654Y-57270246D02*
X110894511Y-57233960D01*
X110894511Y-57233960D02*
X110967082Y-57161389D01*
X110967082Y-57161389D02*
X111003368Y-57088817D01*
X111003368Y-57088817D02*
X111039654Y-56943674D01*
X111039654Y-56943674D02*
X111039654Y-56834817D01*
X111039654Y-56834817D02*
X111003368Y-56689674D01*
X111003368Y-56689674D02*
X110967082Y-56617103D01*
X110967082Y-56617103D02*
X110894511Y-56544532D01*
X110894511Y-56544532D02*
X110785654Y-56508246D01*
X110785654Y-56508246D02*
X110713082Y-56508246D01*
X110713082Y-56508246D02*
X110604225Y-56544532D01*
X110604225Y-56544532D02*
X110567939Y-56580817D01*
X110567939Y-56580817D02*
X110567939Y-56834817D01*
X110567939Y-56834817D02*
X110713082Y-56834817D01*
X109878511Y-57270246D02*
X110241368Y-57270246D01*
X110241368Y-57270246D02*
X110277654Y-56907389D01*
X110277654Y-56907389D02*
X110241368Y-56943674D01*
X110241368Y-56943674D02*
X110168797Y-56979960D01*
X110168797Y-56979960D02*
X109987368Y-56979960D01*
X109987368Y-56979960D02*
X109914797Y-56943674D01*
X109914797Y-56943674D02*
X109878511Y-56907389D01*
X109878511Y-56907389D02*
X109842225Y-56834817D01*
X109842225Y-56834817D02*
X109842225Y-56653389D01*
X109842225Y-56653389D02*
X109878511Y-56580817D01*
X109878511Y-56580817D02*
X109914797Y-56544532D01*
X109914797Y-56544532D02*
X109987368Y-56508246D01*
X109987368Y-56508246D02*
X110168797Y-56508246D01*
X110168797Y-56508246D02*
X110241368Y-56544532D01*
X110241368Y-56544532D02*
X110277654Y-56580817D01*
D13*
X103073071Y-58007852D02*
X104573071Y-58007852D01*
X104573071Y-58007852D02*
X104573071Y-58579281D01*
X104573071Y-58579281D02*
X104501642Y-58722138D01*
X104501642Y-58722138D02*
X104430214Y-58793567D01*
X104430214Y-58793567D02*
X104287357Y-58864995D01*
X104287357Y-58864995D02*
X104073071Y-58864995D01*
X104073071Y-58864995D02*
X103930214Y-58793567D01*
X103930214Y-58793567D02*
X103858785Y-58722138D01*
X103858785Y-58722138D02*
X103787357Y-58579281D01*
X103787357Y-58579281D02*
X103787357Y-58007852D01*
X103073071Y-59507852D02*
X104073071Y-59507852D01*
X103787357Y-59507852D02*
X103930214Y-59579281D01*
X103930214Y-59579281D02*
X104001642Y-59650710D01*
X104001642Y-59650710D02*
X104073071Y-59793567D01*
X104073071Y-59793567D02*
X104073071Y-59936424D01*
X103073071Y-60650709D02*
X103144500Y-60507852D01*
X103144500Y-60507852D02*
X103215928Y-60436423D01*
X103215928Y-60436423D02*
X103358785Y-60364995D01*
X103358785Y-60364995D02*
X103787357Y-60364995D01*
X103787357Y-60364995D02*
X103930214Y-60436423D01*
X103930214Y-60436423D02*
X104001642Y-60507852D01*
X104001642Y-60507852D02*
X104073071Y-60650709D01*
X104073071Y-60650709D02*
X104073071Y-60864995D01*
X104073071Y-60864995D02*
X104001642Y-61007852D01*
X104001642Y-61007852D02*
X103930214Y-61079281D01*
X103930214Y-61079281D02*
X103787357Y-61150709D01*
X103787357Y-61150709D02*
X103358785Y-61150709D01*
X103358785Y-61150709D02*
X103215928Y-61079281D01*
X103215928Y-61079281D02*
X103144500Y-61007852D01*
X103144500Y-61007852D02*
X103073071Y-60864995D01*
X103073071Y-60864995D02*
X103073071Y-60650709D01*
X103144500Y-61722138D02*
X103073071Y-61936424D01*
X103073071Y-61936424D02*
X103073071Y-62293566D01*
X103073071Y-62293566D02*
X103144500Y-62436424D01*
X103144500Y-62436424D02*
X103215928Y-62507852D01*
X103215928Y-62507852D02*
X103358785Y-62579281D01*
X103358785Y-62579281D02*
X103501642Y-62579281D01*
X103501642Y-62579281D02*
X103644500Y-62507852D01*
X103644500Y-62507852D02*
X103715928Y-62436424D01*
X103715928Y-62436424D02*
X103787357Y-62293566D01*
X103787357Y-62293566D02*
X103858785Y-62007852D01*
X103858785Y-62007852D02*
X103930214Y-61864995D01*
X103930214Y-61864995D02*
X104001642Y-61793566D01*
X104001642Y-61793566D02*
X104144500Y-61722138D01*
X104144500Y-61722138D02*
X104287357Y-61722138D01*
X104287357Y-61722138D02*
X104430214Y-61793566D01*
X104430214Y-61793566D02*
X104501642Y-61864995D01*
X104501642Y-61864995D02*
X104573071Y-62007852D01*
X104573071Y-62007852D02*
X104573071Y-62364995D01*
X104573071Y-62364995D02*
X104501642Y-62579281D01*
X104573071Y-63079280D02*
X104573071Y-64007852D01*
X104573071Y-64007852D02*
X104001642Y-63507852D01*
X104001642Y-63507852D02*
X104001642Y-63722137D01*
X104001642Y-63722137D02*
X103930214Y-63864995D01*
X103930214Y-63864995D02*
X103858785Y-63936423D01*
X103858785Y-63936423D02*
X103715928Y-64007852D01*
X103715928Y-64007852D02*
X103358785Y-64007852D01*
X103358785Y-64007852D02*
X103215928Y-63936423D01*
X103215928Y-63936423D02*
X103144500Y-63864995D01*
X103144500Y-63864995D02*
X103073071Y-63722137D01*
X103073071Y-63722137D02*
X103073071Y-63293566D01*
X103073071Y-63293566D02*
X103144500Y-63150709D01*
X103144500Y-63150709D02*
X103215928Y-63079280D01*
D12*
X113144225Y-57233960D02*
X113216797Y-57270246D01*
X113216797Y-57270246D02*
X113325654Y-57270246D01*
X113325654Y-57270246D02*
X113434511Y-57233960D01*
X113434511Y-57233960D02*
X113507082Y-57161389D01*
X113507082Y-57161389D02*
X113543368Y-57088817D01*
X113543368Y-57088817D02*
X113579654Y-56943674D01*
X113579654Y-56943674D02*
X113579654Y-56834817D01*
X113579654Y-56834817D02*
X113543368Y-56689674D01*
X113543368Y-56689674D02*
X113507082Y-56617103D01*
X113507082Y-56617103D02*
X113434511Y-56544532D01*
X113434511Y-56544532D02*
X113325654Y-56508246D01*
X113325654Y-56508246D02*
X113253082Y-56508246D01*
X113253082Y-56508246D02*
X113144225Y-56544532D01*
X113144225Y-56544532D02*
X113107939Y-56580817D01*
X113107939Y-56580817D02*
X113107939Y-56834817D01*
X113107939Y-56834817D02*
X113253082Y-56834817D01*
X112454797Y-57016246D02*
X112454797Y-56508246D01*
X112636225Y-57306532D02*
X112817654Y-56762246D01*
X112817654Y-56762246D02*
X112345939Y-56762246D01*
X115684224Y-57233959D02*
X115756796Y-57270245D01*
X115756796Y-57270245D02*
X115865653Y-57270245D01*
X115865653Y-57270245D02*
X115974510Y-57233959D01*
X115974510Y-57233959D02*
X116047081Y-57161388D01*
X116047081Y-57161388D02*
X116083367Y-57088816D01*
X116083367Y-57088816D02*
X116119653Y-56943673D01*
X116119653Y-56943673D02*
X116119653Y-56834816D01*
X116119653Y-56834816D02*
X116083367Y-56689673D01*
X116083367Y-56689673D02*
X116047081Y-56617102D01*
X116047081Y-56617102D02*
X115974510Y-56544531D01*
X115974510Y-56544531D02*
X115865653Y-56508245D01*
X115865653Y-56508245D02*
X115793081Y-56508245D01*
X115793081Y-56508245D02*
X115684224Y-56544531D01*
X115684224Y-56544531D02*
X115647938Y-56580816D01*
X115647938Y-56580816D02*
X115647938Y-56834816D01*
X115647938Y-56834816D02*
X115793081Y-56834816D01*
X115393938Y-57270245D02*
X114922224Y-57270245D01*
X114922224Y-57270245D02*
X115176224Y-56979959D01*
X115176224Y-56979959D02*
X115067367Y-56979959D01*
X115067367Y-56979959D02*
X114994796Y-56943673D01*
X114994796Y-56943673D02*
X114958510Y-56907388D01*
X114958510Y-56907388D02*
X114922224Y-56834816D01*
X114922224Y-56834816D02*
X114922224Y-56653388D01*
X114922224Y-56653388D02*
X114958510Y-56580816D01*
X114958510Y-56580816D02*
X114994796Y-56544531D01*
X114994796Y-56544531D02*
X115067367Y-56508245D01*
X115067367Y-56508245D02*
X115285081Y-56508245D01*
X115285081Y-56508245D02*
X115357653Y-56544531D01*
X115357653Y-56544531D02*
X115393938Y-56580816D01*
D14*
X128834100Y-57273548D02*
X128398672Y-57273548D01*
X128616386Y-56511548D02*
X128616386Y-57273548D01*
X128217243Y-57273548D02*
X127709243Y-56511548D01*
X127709243Y-57273548D02*
X128217243Y-56511548D01*
D12*
X109884123Y-68770427D02*
X109811552Y-68734141D01*
X109811552Y-68734141D02*
X109702694Y-68734141D01*
X109702694Y-68734141D02*
X109593837Y-68770427D01*
X109593837Y-68770427D02*
X109521266Y-68842998D01*
X109521266Y-68842998D02*
X109484980Y-68915570D01*
X109484980Y-68915570D02*
X109448694Y-69060713D01*
X109448694Y-69060713D02*
X109448694Y-69169570D01*
X109448694Y-69169570D02*
X109484980Y-69314713D01*
X109484980Y-69314713D02*
X109521266Y-69387284D01*
X109521266Y-69387284D02*
X109593837Y-69459856D01*
X109593837Y-69459856D02*
X109702694Y-69496141D01*
X109702694Y-69496141D02*
X109775266Y-69496141D01*
X109775266Y-69496141D02*
X109884123Y-69459856D01*
X109884123Y-69459856D02*
X109920409Y-69423570D01*
X109920409Y-69423570D02*
X109920409Y-69169570D01*
X109920409Y-69169570D02*
X109775266Y-69169570D01*
X110646123Y-69496141D02*
X110210694Y-69496141D01*
X110428409Y-69496141D02*
X110428409Y-68734141D01*
X110428409Y-68734141D02*
X110355837Y-68842998D01*
X110355837Y-68842998D02*
X110283266Y-68915570D01*
X110283266Y-68915570D02*
X110210694Y-68951856D01*
X111081551Y-69060713D02*
X111008980Y-69024427D01*
X111008980Y-69024427D02*
X110972694Y-68988141D01*
X110972694Y-68988141D02*
X110936408Y-68915570D01*
X110936408Y-68915570D02*
X110936408Y-68879284D01*
X110936408Y-68879284D02*
X110972694Y-68806713D01*
X110972694Y-68806713D02*
X111008980Y-68770427D01*
X111008980Y-68770427D02*
X111081551Y-68734141D01*
X111081551Y-68734141D02*
X111226694Y-68734141D01*
X111226694Y-68734141D02*
X111299266Y-68770427D01*
X111299266Y-68770427D02*
X111335551Y-68806713D01*
X111335551Y-68806713D02*
X111371837Y-68879284D01*
X111371837Y-68879284D02*
X111371837Y-68915570D01*
X111371837Y-68915570D02*
X111335551Y-68988141D01*
X111335551Y-68988141D02*
X111299266Y-69024427D01*
X111299266Y-69024427D02*
X111226694Y-69060713D01*
X111226694Y-69060713D02*
X111081551Y-69060713D01*
X111081551Y-69060713D02*
X111008980Y-69096998D01*
X111008980Y-69096998D02*
X110972694Y-69133284D01*
X110972694Y-69133284D02*
X110936408Y-69205856D01*
X110936408Y-69205856D02*
X110936408Y-69350998D01*
X110936408Y-69350998D02*
X110972694Y-69423570D01*
X110972694Y-69423570D02*
X111008980Y-69459856D01*
X111008980Y-69459856D02*
X111081551Y-69496141D01*
X111081551Y-69496141D02*
X111226694Y-69496141D01*
X111226694Y-69496141D02*
X111299266Y-69459856D01*
X111299266Y-69459856D02*
X111335551Y-69423570D01*
X111335551Y-69423570D02*
X111371837Y-69350998D01*
X111371837Y-69350998D02*
X111371837Y-69205856D01*
X111371837Y-69205856D02*
X111335551Y-69133284D01*
X111335551Y-69133284D02*
X111299266Y-69096998D01*
X111299266Y-69096998D02*
X111226694Y-69060713D01*
X119790123Y-68734141D02*
X120044123Y-69496141D01*
X120044123Y-69496141D02*
X120298123Y-68734141D01*
X120552123Y-69496141D02*
X120552123Y-68734141D01*
X120914980Y-69496141D02*
X120914980Y-68734141D01*
X120914980Y-68734141D02*
X121350409Y-69496141D01*
X121350409Y-69496141D02*
X121350409Y-68734141D01*
X102264123Y-68770427D02*
X102191552Y-68734141D01*
X102191552Y-68734141D02*
X102082694Y-68734141D01*
X102082694Y-68734141D02*
X101973837Y-68770427D01*
X101973837Y-68770427D02*
X101901266Y-68842998D01*
X101901266Y-68842998D02*
X101864980Y-68915570D01*
X101864980Y-68915570D02*
X101828694Y-69060713D01*
X101828694Y-69060713D02*
X101828694Y-69169570D01*
X101828694Y-69169570D02*
X101864980Y-69314713D01*
X101864980Y-69314713D02*
X101901266Y-69387284D01*
X101901266Y-69387284D02*
X101973837Y-69459856D01*
X101973837Y-69459856D02*
X102082694Y-69496141D01*
X102082694Y-69496141D02*
X102155266Y-69496141D01*
X102155266Y-69496141D02*
X102264123Y-69459856D01*
X102264123Y-69459856D02*
X102300409Y-69423570D01*
X102300409Y-69423570D02*
X102300409Y-69169570D01*
X102300409Y-69169570D02*
X102155266Y-69169570D01*
X103026123Y-69496141D02*
X102590694Y-69496141D01*
X102808409Y-69496141D02*
X102808409Y-68734141D01*
X102808409Y-68734141D02*
X102735837Y-68842998D01*
X102735837Y-68842998D02*
X102663266Y-68915570D01*
X102663266Y-68915570D02*
X102590694Y-68951856D01*
X103679266Y-68734141D02*
X103534123Y-68734141D01*
X103534123Y-68734141D02*
X103461551Y-68770427D01*
X103461551Y-68770427D02*
X103425266Y-68806713D01*
X103425266Y-68806713D02*
X103352694Y-68915570D01*
X103352694Y-68915570D02*
X103316408Y-69060713D01*
X103316408Y-69060713D02*
X103316408Y-69350998D01*
X103316408Y-69350998D02*
X103352694Y-69423570D01*
X103352694Y-69423570D02*
X103388980Y-69459856D01*
X103388980Y-69459856D02*
X103461551Y-69496141D01*
X103461551Y-69496141D02*
X103606694Y-69496141D01*
X103606694Y-69496141D02*
X103679266Y-69459856D01*
X103679266Y-69459856D02*
X103715551Y-69423570D01*
X103715551Y-69423570D02*
X103751837Y-69350998D01*
X103751837Y-69350998D02*
X103751837Y-69169570D01*
X103751837Y-69169570D02*
X103715551Y-69096998D01*
X103715551Y-69096998D02*
X103679266Y-69060713D01*
X103679266Y-69060713D02*
X103606694Y-69024427D01*
X103606694Y-69024427D02*
X103461551Y-69024427D01*
X103461551Y-69024427D02*
X103388980Y-69060713D01*
X103388980Y-69060713D02*
X103352694Y-69096998D01*
X103352694Y-69096998D02*
X103316408Y-69169570D01*
X117758123Y-68770427D02*
X117685552Y-68734141D01*
X117685552Y-68734141D02*
X117576694Y-68734141D01*
X117576694Y-68734141D02*
X117467837Y-68770427D01*
X117467837Y-68770427D02*
X117395266Y-68842998D01*
X117395266Y-68842998D02*
X117358980Y-68915570D01*
X117358980Y-68915570D02*
X117322694Y-69060713D01*
X117322694Y-69060713D02*
X117322694Y-69169570D01*
X117322694Y-69169570D02*
X117358980Y-69314713D01*
X117358980Y-69314713D02*
X117395266Y-69387284D01*
X117395266Y-69387284D02*
X117467837Y-69459856D01*
X117467837Y-69459856D02*
X117576694Y-69496141D01*
X117576694Y-69496141D02*
X117649266Y-69496141D01*
X117649266Y-69496141D02*
X117758123Y-69459856D01*
X117758123Y-69459856D02*
X117794409Y-69423570D01*
X117794409Y-69423570D02*
X117794409Y-69169570D01*
X117794409Y-69169570D02*
X117649266Y-69169570D01*
X118084694Y-68806713D02*
X118120980Y-68770427D01*
X118120980Y-68770427D02*
X118193552Y-68734141D01*
X118193552Y-68734141D02*
X118374980Y-68734141D01*
X118374980Y-68734141D02*
X118447552Y-68770427D01*
X118447552Y-68770427D02*
X118483837Y-68806713D01*
X118483837Y-68806713D02*
X118520123Y-68879284D01*
X118520123Y-68879284D02*
X118520123Y-68951856D01*
X118520123Y-68951856D02*
X118483837Y-69060713D01*
X118483837Y-69060713D02*
X118048409Y-69496141D01*
X118048409Y-69496141D02*
X118520123Y-69496141D01*
X119245837Y-69496141D02*
X118810408Y-69496141D01*
X119028123Y-69496141D02*
X119028123Y-68734141D01*
X119028123Y-68734141D02*
X118955551Y-68842998D01*
X118955551Y-68842998D02*
X118882980Y-68915570D01*
X118882980Y-68915570D02*
X118810408Y-68951856D01*
X100444225Y-57233960D02*
X100516797Y-57270246D01*
X100516797Y-57270246D02*
X100625654Y-57270246D01*
X100625654Y-57270246D02*
X100734511Y-57233960D01*
X100734511Y-57233960D02*
X100807082Y-57161389D01*
X100807082Y-57161389D02*
X100843368Y-57088817D01*
X100843368Y-57088817D02*
X100879654Y-56943674D01*
X100879654Y-56943674D02*
X100879654Y-56834817D01*
X100879654Y-56834817D02*
X100843368Y-56689674D01*
X100843368Y-56689674D02*
X100807082Y-56617103D01*
X100807082Y-56617103D02*
X100734511Y-56544532D01*
X100734511Y-56544532D02*
X100625654Y-56508246D01*
X100625654Y-56508246D02*
X100553082Y-56508246D01*
X100553082Y-56508246D02*
X100444225Y-56544532D01*
X100444225Y-56544532D02*
X100407939Y-56580817D01*
X100407939Y-56580817D02*
X100407939Y-56834817D01*
X100407939Y-56834817D02*
X100553082Y-56834817D01*
X100045082Y-56508246D02*
X99899939Y-56508246D01*
X99899939Y-56508246D02*
X99827368Y-56544532D01*
X99827368Y-56544532D02*
X99791082Y-56580817D01*
X99791082Y-56580817D02*
X99718511Y-56689674D01*
X99718511Y-56689674D02*
X99682225Y-56834817D01*
X99682225Y-56834817D02*
X99682225Y-57125103D01*
X99682225Y-57125103D02*
X99718511Y-57197674D01*
X99718511Y-57197674D02*
X99754797Y-57233960D01*
X99754797Y-57233960D02*
X99827368Y-57270246D01*
X99827368Y-57270246D02*
X99972511Y-57270246D01*
X99972511Y-57270246D02*
X100045082Y-57233960D01*
X100045082Y-57233960D02*
X100081368Y-57197674D01*
X100081368Y-57197674D02*
X100117654Y-57125103D01*
X100117654Y-57125103D02*
X100117654Y-56943674D01*
X100117654Y-56943674D02*
X100081368Y-56871103D01*
X100081368Y-56871103D02*
X100045082Y-56834817D01*
X100045082Y-56834817D02*
X99972511Y-56798532D01*
X99972511Y-56798532D02*
X99827368Y-56798532D01*
X99827368Y-56798532D02*
X99754797Y-56834817D01*
X99754797Y-56834817D02*
X99718511Y-56871103D01*
X99718511Y-56871103D02*
X99682225Y-56943674D01*
X123050224Y-57190779D02*
X123122796Y-57227065D01*
X123122796Y-57227065D02*
X123231653Y-57227065D01*
X123231653Y-57227065D02*
X123340510Y-57190779D01*
X123340510Y-57190779D02*
X123413081Y-57118208D01*
X123413081Y-57118208D02*
X123449367Y-57045636D01*
X123449367Y-57045636D02*
X123485653Y-56900493D01*
X123485653Y-56900493D02*
X123485653Y-56791636D01*
X123485653Y-56791636D02*
X123449367Y-56646493D01*
X123449367Y-56646493D02*
X123413081Y-56573922D01*
X123413081Y-56573922D02*
X123340510Y-56501351D01*
X123340510Y-56501351D02*
X123231653Y-56465065D01*
X123231653Y-56465065D02*
X123159081Y-56465065D01*
X123159081Y-56465065D02*
X123050224Y-56501351D01*
X123050224Y-56501351D02*
X123013938Y-56537636D01*
X123013938Y-56537636D02*
X123013938Y-56791636D01*
X123013938Y-56791636D02*
X123159081Y-56791636D01*
X118224224Y-57233960D02*
X118296796Y-57270246D01*
X118296796Y-57270246D02*
X118405653Y-57270246D01*
X118405653Y-57270246D02*
X118514510Y-57233960D01*
X118514510Y-57233960D02*
X118587081Y-57161389D01*
X118587081Y-57161389D02*
X118623367Y-57088817D01*
X118623367Y-57088817D02*
X118659653Y-56943674D01*
X118659653Y-56943674D02*
X118659653Y-56834817D01*
X118659653Y-56834817D02*
X118623367Y-56689674D01*
X118623367Y-56689674D02*
X118587081Y-56617103D01*
X118587081Y-56617103D02*
X118514510Y-56544532D01*
X118514510Y-56544532D02*
X118405653Y-56508246D01*
X118405653Y-56508246D02*
X118333081Y-56508246D01*
X118333081Y-56508246D02*
X118224224Y-56544532D01*
X118224224Y-56544532D02*
X118187938Y-56580817D01*
X118187938Y-56580817D02*
X118187938Y-56834817D01*
X118187938Y-56834817D02*
X118333081Y-56834817D01*
X117897653Y-57197674D02*
X117861367Y-57233960D01*
X117861367Y-57233960D02*
X117788796Y-57270246D01*
X117788796Y-57270246D02*
X117607367Y-57270246D01*
X117607367Y-57270246D02*
X117534796Y-57233960D01*
X117534796Y-57233960D02*
X117498510Y-57197674D01*
X117498510Y-57197674D02*
X117462224Y-57125103D01*
X117462224Y-57125103D02*
X117462224Y-57052532D01*
X117462224Y-57052532D02*
X117498510Y-56943674D01*
X117498510Y-56943674D02*
X117933938Y-56508246D01*
X117933938Y-56508246D02*
X117462224Y-56508246D01*
X115218123Y-68770427D02*
X115145552Y-68734141D01*
X115145552Y-68734141D02*
X115036694Y-68734141D01*
X115036694Y-68734141D02*
X114927837Y-68770427D01*
X114927837Y-68770427D02*
X114855266Y-68842998D01*
X114855266Y-68842998D02*
X114818980Y-68915570D01*
X114818980Y-68915570D02*
X114782694Y-69060713D01*
X114782694Y-69060713D02*
X114782694Y-69169570D01*
X114782694Y-69169570D02*
X114818980Y-69314713D01*
X114818980Y-69314713D02*
X114855266Y-69387284D01*
X114855266Y-69387284D02*
X114927837Y-69459856D01*
X114927837Y-69459856D02*
X115036694Y-69496141D01*
X115036694Y-69496141D02*
X115109266Y-69496141D01*
X115109266Y-69496141D02*
X115218123Y-69459856D01*
X115218123Y-69459856D02*
X115254409Y-69423570D01*
X115254409Y-69423570D02*
X115254409Y-69169570D01*
X115254409Y-69169570D02*
X115109266Y-69169570D01*
X115544694Y-68806713D02*
X115580980Y-68770427D01*
X115580980Y-68770427D02*
X115653552Y-68734141D01*
X115653552Y-68734141D02*
X115834980Y-68734141D01*
X115834980Y-68734141D02*
X115907552Y-68770427D01*
X115907552Y-68770427D02*
X115943837Y-68806713D01*
X115943837Y-68806713D02*
X115980123Y-68879284D01*
X115980123Y-68879284D02*
X115980123Y-68951856D01*
X115980123Y-68951856D02*
X115943837Y-69060713D01*
X115943837Y-69060713D02*
X115508409Y-69496141D01*
X115508409Y-69496141D02*
X115980123Y-69496141D01*
X116451837Y-68734141D02*
X116524408Y-68734141D01*
X116524408Y-68734141D02*
X116596980Y-68770427D01*
X116596980Y-68770427D02*
X116633266Y-68806713D01*
X116633266Y-68806713D02*
X116669551Y-68879284D01*
X116669551Y-68879284D02*
X116705837Y-69024427D01*
X116705837Y-69024427D02*
X116705837Y-69205856D01*
X116705837Y-69205856D02*
X116669551Y-69350998D01*
X116669551Y-69350998D02*
X116633266Y-69423570D01*
X116633266Y-69423570D02*
X116596980Y-69459856D01*
X116596980Y-69459856D02*
X116524408Y-69496141D01*
X116524408Y-69496141D02*
X116451837Y-69496141D01*
X116451837Y-69496141D02*
X116379266Y-69459856D01*
X116379266Y-69459856D02*
X116342980Y-69423570D01*
X116342980Y-69423570D02*
X116306694Y-69350998D01*
X116306694Y-69350998D02*
X116270408Y-69205856D01*
X116270408Y-69205856D02*
X116270408Y-69024427D01*
X116270408Y-69024427D02*
X116306694Y-68879284D01*
X116306694Y-68879284D02*
X116342980Y-68806713D01*
X116342980Y-68806713D02*
X116379266Y-68770427D01*
X116379266Y-68770427D02*
X116451837Y-68734141D01*
X122874409Y-69496141D02*
X122620409Y-69133284D01*
X122438980Y-69496141D02*
X122438980Y-68734141D01*
X122438980Y-68734141D02*
X122729266Y-68734141D01*
X122729266Y-68734141D02*
X122801837Y-68770427D01*
X122801837Y-68770427D02*
X122838123Y-68806713D01*
X122838123Y-68806713D02*
X122874409Y-68879284D01*
X122874409Y-68879284D02*
X122874409Y-68988141D01*
X122874409Y-68988141D02*
X122838123Y-69060713D01*
X122838123Y-69060713D02*
X122801837Y-69096998D01*
X122801837Y-69096998D02*
X122729266Y-69133284D01*
X122729266Y-69133284D02*
X122438980Y-69133284D01*
X123164694Y-69459856D02*
X123273552Y-69496141D01*
X123273552Y-69496141D02*
X123454980Y-69496141D01*
X123454980Y-69496141D02*
X123527552Y-69459856D01*
X123527552Y-69459856D02*
X123563837Y-69423570D01*
X123563837Y-69423570D02*
X123600123Y-69350998D01*
X123600123Y-69350998D02*
X123600123Y-69278427D01*
X123600123Y-69278427D02*
X123563837Y-69205856D01*
X123563837Y-69205856D02*
X123527552Y-69169570D01*
X123527552Y-69169570D02*
X123454980Y-69133284D01*
X123454980Y-69133284D02*
X123309837Y-69096998D01*
X123309837Y-69096998D02*
X123237266Y-69060713D01*
X123237266Y-69060713D02*
X123200980Y-69024427D01*
X123200980Y-69024427D02*
X123164694Y-68951856D01*
X123164694Y-68951856D02*
X123164694Y-68879284D01*
X123164694Y-68879284D02*
X123200980Y-68806713D01*
X123200980Y-68806713D02*
X123237266Y-68770427D01*
X123237266Y-68770427D02*
X123309837Y-68734141D01*
X123309837Y-68734141D02*
X123491266Y-68734141D01*
X123491266Y-68734141D02*
X123600123Y-68770427D01*
X123817837Y-68734141D02*
X124253266Y-68734141D01*
X124035551Y-69496141D02*
X124035551Y-68734141D01*
X99724123Y-68770427D02*
X99651552Y-68734141D01*
X99651552Y-68734141D02*
X99542694Y-68734141D01*
X99542694Y-68734141D02*
X99433837Y-68770427D01*
X99433837Y-68770427D02*
X99361266Y-68842998D01*
X99361266Y-68842998D02*
X99324980Y-68915570D01*
X99324980Y-68915570D02*
X99288694Y-69060713D01*
X99288694Y-69060713D02*
X99288694Y-69169570D01*
X99288694Y-69169570D02*
X99324980Y-69314713D01*
X99324980Y-69314713D02*
X99361266Y-69387284D01*
X99361266Y-69387284D02*
X99433837Y-69459856D01*
X99433837Y-69459856D02*
X99542694Y-69496141D01*
X99542694Y-69496141D02*
X99615266Y-69496141D01*
X99615266Y-69496141D02*
X99724123Y-69459856D01*
X99724123Y-69459856D02*
X99760409Y-69423570D01*
X99760409Y-69423570D02*
X99760409Y-69169570D01*
X99760409Y-69169570D02*
X99615266Y-69169570D01*
X100486123Y-69496141D02*
X100050694Y-69496141D01*
X100268409Y-69496141D02*
X100268409Y-68734141D01*
X100268409Y-68734141D02*
X100195837Y-68842998D01*
X100195837Y-68842998D02*
X100123266Y-68915570D01*
X100123266Y-68915570D02*
X100050694Y-68951856D01*
X100957837Y-68734141D02*
X101030408Y-68734141D01*
X101030408Y-68734141D02*
X101102980Y-68770427D01*
X101102980Y-68770427D02*
X101139266Y-68806713D01*
X101139266Y-68806713D02*
X101175551Y-68879284D01*
X101175551Y-68879284D02*
X101211837Y-69024427D01*
X101211837Y-69024427D02*
X101211837Y-69205856D01*
X101211837Y-69205856D02*
X101175551Y-69350998D01*
X101175551Y-69350998D02*
X101139266Y-69423570D01*
X101139266Y-69423570D02*
X101102980Y-69459856D01*
X101102980Y-69459856D02*
X101030408Y-69496141D01*
X101030408Y-69496141D02*
X100957837Y-69496141D01*
X100957837Y-69496141D02*
X100885266Y-69459856D01*
X100885266Y-69459856D02*
X100848980Y-69423570D01*
X100848980Y-69423570D02*
X100812694Y-69350998D01*
X100812694Y-69350998D02*
X100776408Y-69205856D01*
X100776408Y-69205856D02*
X100776408Y-69024427D01*
X100776408Y-69024427D02*
X100812694Y-68879284D01*
X100812694Y-68879284D02*
X100848980Y-68806713D01*
X100848980Y-68806713D02*
X100885266Y-68770427D01*
X100885266Y-68770427D02*
X100957837Y-68734141D01*
X107344123Y-68770427D02*
X107271552Y-68734141D01*
X107271552Y-68734141D02*
X107162694Y-68734141D01*
X107162694Y-68734141D02*
X107053837Y-68770427D01*
X107053837Y-68770427D02*
X106981266Y-68842998D01*
X106981266Y-68842998D02*
X106944980Y-68915570D01*
X106944980Y-68915570D02*
X106908694Y-69060713D01*
X106908694Y-69060713D02*
X106908694Y-69169570D01*
X106908694Y-69169570D02*
X106944980Y-69314713D01*
X106944980Y-69314713D02*
X106981266Y-69387284D01*
X106981266Y-69387284D02*
X107053837Y-69459856D01*
X107053837Y-69459856D02*
X107162694Y-69496141D01*
X107162694Y-69496141D02*
X107235266Y-69496141D01*
X107235266Y-69496141D02*
X107344123Y-69459856D01*
X107344123Y-69459856D02*
X107380409Y-69423570D01*
X107380409Y-69423570D02*
X107380409Y-69169570D01*
X107380409Y-69169570D02*
X107235266Y-69169570D01*
X108106123Y-69496141D02*
X107670694Y-69496141D01*
X107888409Y-69496141D02*
X107888409Y-68734141D01*
X107888409Y-68734141D02*
X107815837Y-68842998D01*
X107815837Y-68842998D02*
X107743266Y-68915570D01*
X107743266Y-68915570D02*
X107670694Y-68951856D01*
X108795551Y-68734141D02*
X108432694Y-68734141D01*
X108432694Y-68734141D02*
X108396408Y-69096998D01*
X108396408Y-69096998D02*
X108432694Y-69060713D01*
X108432694Y-69060713D02*
X108505266Y-69024427D01*
X108505266Y-69024427D02*
X108686694Y-69024427D01*
X108686694Y-69024427D02*
X108759266Y-69060713D01*
X108759266Y-69060713D02*
X108795551Y-69096998D01*
X108795551Y-69096998D02*
X108831837Y-69169570D01*
X108831837Y-69169570D02*
X108831837Y-69350998D01*
X108831837Y-69350998D02*
X108795551Y-69423570D01*
X108795551Y-69423570D02*
X108759266Y-69459856D01*
X108759266Y-69459856D02*
X108686694Y-69496141D01*
X108686694Y-69496141D02*
X108505266Y-69496141D01*
X108505266Y-69496141D02*
X108432694Y-69459856D01*
X108432694Y-69459856D02*
X108396408Y-69423570D01*
X102984225Y-57233960D02*
X103056797Y-57270246D01*
X103056797Y-57270246D02*
X103165654Y-57270246D01*
X103165654Y-57270246D02*
X103274511Y-57233960D01*
X103274511Y-57233960D02*
X103347082Y-57161389D01*
X103347082Y-57161389D02*
X103383368Y-57088817D01*
X103383368Y-57088817D02*
X103419654Y-56943674D01*
X103419654Y-56943674D02*
X103419654Y-56834817D01*
X103419654Y-56834817D02*
X103383368Y-56689674D01*
X103383368Y-56689674D02*
X103347082Y-56617103D01*
X103347082Y-56617103D02*
X103274511Y-56544532D01*
X103274511Y-56544532D02*
X103165654Y-56508246D01*
X103165654Y-56508246D02*
X103093082Y-56508246D01*
X103093082Y-56508246D02*
X102984225Y-56544532D01*
X102984225Y-56544532D02*
X102947939Y-56580817D01*
X102947939Y-56580817D02*
X102947939Y-56834817D01*
X102947939Y-56834817D02*
X103093082Y-56834817D01*
X102512511Y-56943674D02*
X102585082Y-56979960D01*
X102585082Y-56979960D02*
X102621368Y-57016246D01*
X102621368Y-57016246D02*
X102657654Y-57088817D01*
X102657654Y-57088817D02*
X102657654Y-57125103D01*
X102657654Y-57125103D02*
X102621368Y-57197674D01*
X102621368Y-57197674D02*
X102585082Y-57233960D01*
X102585082Y-57233960D02*
X102512511Y-57270246D01*
X102512511Y-57270246D02*
X102367368Y-57270246D01*
X102367368Y-57270246D02*
X102294797Y-57233960D01*
X102294797Y-57233960D02*
X102258511Y-57197674D01*
X102258511Y-57197674D02*
X102222225Y-57125103D01*
X102222225Y-57125103D02*
X102222225Y-57088817D01*
X102222225Y-57088817D02*
X102258511Y-57016246D01*
X102258511Y-57016246D02*
X102294797Y-56979960D01*
X102294797Y-56979960D02*
X102367368Y-56943674D01*
X102367368Y-56943674D02*
X102512511Y-56943674D01*
X102512511Y-56943674D02*
X102585082Y-56907389D01*
X102585082Y-56907389D02*
X102621368Y-56871103D01*
X102621368Y-56871103D02*
X102657654Y-56798532D01*
X102657654Y-56798532D02*
X102657654Y-56653389D01*
X102657654Y-56653389D02*
X102621368Y-56580817D01*
X102621368Y-56580817D02*
X102585082Y-56544532D01*
X102585082Y-56544532D02*
X102512511Y-56508246D01*
X102512511Y-56508246D02*
X102367368Y-56508246D01*
X102367368Y-56508246D02*
X102294797Y-56544532D01*
X102294797Y-56544532D02*
X102258511Y-56580817D01*
X102258511Y-56580817D02*
X102222225Y-56653389D01*
X102222225Y-56653389D02*
X102222225Y-56798532D01*
X102222225Y-56798532D02*
X102258511Y-56871103D01*
X102258511Y-56871103D02*
X102294797Y-56907389D01*
X102294797Y-56907389D02*
X102367368Y-56943674D01*
X112678123Y-68770427D02*
X112605552Y-68734141D01*
X112605552Y-68734141D02*
X112496694Y-68734141D01*
X112496694Y-68734141D02*
X112387837Y-68770427D01*
X112387837Y-68770427D02*
X112315266Y-68842998D01*
X112315266Y-68842998D02*
X112278980Y-68915570D01*
X112278980Y-68915570D02*
X112242694Y-69060713D01*
X112242694Y-69060713D02*
X112242694Y-69169570D01*
X112242694Y-69169570D02*
X112278980Y-69314713D01*
X112278980Y-69314713D02*
X112315266Y-69387284D01*
X112315266Y-69387284D02*
X112387837Y-69459856D01*
X112387837Y-69459856D02*
X112496694Y-69496141D01*
X112496694Y-69496141D02*
X112569266Y-69496141D01*
X112569266Y-69496141D02*
X112678123Y-69459856D01*
X112678123Y-69459856D02*
X112714409Y-69423570D01*
X112714409Y-69423570D02*
X112714409Y-69169570D01*
X112714409Y-69169570D02*
X112569266Y-69169570D01*
X113440123Y-69496141D02*
X113004694Y-69496141D01*
X113222409Y-69496141D02*
X113222409Y-68734141D01*
X113222409Y-68734141D02*
X113149837Y-68842998D01*
X113149837Y-68842998D02*
X113077266Y-68915570D01*
X113077266Y-68915570D02*
X113004694Y-68951856D01*
X113802980Y-69496141D02*
X113948123Y-69496141D01*
X113948123Y-69496141D02*
X114020694Y-69459856D01*
X114020694Y-69459856D02*
X114056980Y-69423570D01*
X114056980Y-69423570D02*
X114129551Y-69314713D01*
X114129551Y-69314713D02*
X114165837Y-69169570D01*
X114165837Y-69169570D02*
X114165837Y-68879284D01*
X114165837Y-68879284D02*
X114129551Y-68806713D01*
X114129551Y-68806713D02*
X114093266Y-68770427D01*
X114093266Y-68770427D02*
X114020694Y-68734141D01*
X114020694Y-68734141D02*
X113875551Y-68734141D01*
X113875551Y-68734141D02*
X113802980Y-68770427D01*
X113802980Y-68770427D02*
X113766694Y-68806713D01*
X113766694Y-68806713D02*
X113730408Y-68879284D01*
X113730408Y-68879284D02*
X113730408Y-69060713D01*
X113730408Y-69060713D02*
X113766694Y-69133284D01*
X113766694Y-69133284D02*
X113802980Y-69169570D01*
X113802980Y-69169570D02*
X113875551Y-69205856D01*
X113875551Y-69205856D02*
X114020694Y-69205856D01*
X114020694Y-69205856D02*
X114093266Y-69169570D01*
X114093266Y-69169570D02*
X114129551Y-69133284D01*
X114129551Y-69133284D02*
X114165837Y-69060713D01*
X104804123Y-68770427D02*
X104731552Y-68734141D01*
X104731552Y-68734141D02*
X104622694Y-68734141D01*
X104622694Y-68734141D02*
X104513837Y-68770427D01*
X104513837Y-68770427D02*
X104441266Y-68842998D01*
X104441266Y-68842998D02*
X104404980Y-68915570D01*
X104404980Y-68915570D02*
X104368694Y-69060713D01*
X104368694Y-69060713D02*
X104368694Y-69169570D01*
X104368694Y-69169570D02*
X104404980Y-69314713D01*
X104404980Y-69314713D02*
X104441266Y-69387284D01*
X104441266Y-69387284D02*
X104513837Y-69459856D01*
X104513837Y-69459856D02*
X104622694Y-69496141D01*
X104622694Y-69496141D02*
X104695266Y-69496141D01*
X104695266Y-69496141D02*
X104804123Y-69459856D01*
X104804123Y-69459856D02*
X104840409Y-69423570D01*
X104840409Y-69423570D02*
X104840409Y-69169570D01*
X104840409Y-69169570D02*
X104695266Y-69169570D01*
X105566123Y-69496141D02*
X105130694Y-69496141D01*
X105348409Y-69496141D02*
X105348409Y-68734141D01*
X105348409Y-68734141D02*
X105275837Y-68842998D01*
X105275837Y-68842998D02*
X105203266Y-68915570D01*
X105203266Y-68915570D02*
X105130694Y-68951856D01*
X106219266Y-68988141D02*
X106219266Y-69496141D01*
X106037837Y-68697856D02*
X105856408Y-69242141D01*
X105856408Y-69242141D02*
X106328123Y-69242141D01*
X127410123Y-68734141D02*
X127664123Y-69496141D01*
X127664123Y-69496141D02*
X127918123Y-68734141D01*
X128172123Y-69496141D02*
X128172123Y-68734141D01*
X128534980Y-69496141D02*
X128534980Y-68734141D01*
X128534980Y-68734141D02*
X128970409Y-69496141D01*
X128970409Y-69496141D02*
X128970409Y-68734141D01*
D15*
%TO.C,U2*%
X116128033Y-67214285D02*
X116128033Y-62154285D01*
X119168033Y-67214285D02*
X116128033Y-67214285D01*
X116128033Y-62154285D02*
X119168033Y-62154285D01*
X119168033Y-62154285D02*
X119168033Y-67214285D01*
D16*
X120568033Y-67324285D02*
G75*
G03*
X120568033Y-67324285I-150000J0D01*
G01*
X118568033Y-66594285D02*
G75*
G03*
X118568033Y-66594285I-150000J0D01*
G01*
D17*
%TO.C,C5*%
X107677479Y-59322580D02*
X107677479Y-59041420D01*
X108697479Y-59322580D02*
X108697479Y-59041420D01*
%TO.C,R6*%
X122698742Y-62469500D02*
X123173258Y-62469500D01*
X122698742Y-63514500D02*
X123173258Y-63514500D01*
%TO.C,R7*%
X123173258Y-64987700D02*
X122698742Y-64987700D01*
X123173258Y-63942700D02*
X122698742Y-63942700D01*
%TO.C,R3*%
X131150163Y-56440201D02*
X131150163Y-55965685D01*
X132195163Y-56440201D02*
X132195163Y-55965685D01*
D18*
%TO.C,SW1*%
X120787480Y-58701269D02*
X120787480Y-58621269D01*
X120187480Y-59661269D02*
X118587480Y-59661269D01*
X120187480Y-57661269D02*
X118587480Y-57661269D01*
X117987480Y-58701269D02*
X117987480Y-58621269D01*
X119847480Y-58661269D02*
G75*
G03*
X119847480Y-58661269I-460000J0D01*
G01*
D15*
%TO.C,U1*%
X105499477Y-61065823D02*
X105499477Y-61745823D01*
X105499477Y-68225823D02*
X105499477Y-67545823D01*
X106179477Y-61065823D02*
X105499477Y-61065823D01*
X106179477Y-68225823D02*
X105499477Y-68225823D01*
X111979477Y-61065823D02*
X112659477Y-61065823D01*
X111979477Y-68225823D02*
X112659477Y-68225823D01*
X112659477Y-61065823D02*
X112659477Y-61745823D01*
X112659477Y-68225823D02*
X112659477Y-67545823D01*
X105109477Y-62045823D02*
G75*
G03*
X105109477Y-62045823I-70000J0D01*
G01*
D17*
%TO.C,R2*%
X130600500Y-69739743D02*
X130600500Y-70214259D01*
X129555500Y-69739743D02*
X129555500Y-70214259D01*
D18*
%TO.C,SW3*%
X117963479Y-60725270D02*
X117963479Y-60805270D01*
X118563479Y-59765270D02*
X120163479Y-59765270D01*
X118563479Y-61765270D02*
X120163479Y-61765270D01*
X120763479Y-60725270D02*
X120763479Y-60805270D01*
X119823479Y-60765270D02*
G75*
G03*
X119823479Y-60765270I-460000J0D01*
G01*
D17*
%TO.C,C3*%
X115666899Y-57524270D02*
X115948059Y-57524270D01*
X115666899Y-58544270D02*
X115948059Y-58544270D01*
%TO.C,C8*%
X102338600Y-67245620D02*
X102338600Y-67526780D01*
X101318600Y-67245620D02*
X101318600Y-67526780D01*
%TO.C,C1*%
X120231780Y-68429600D02*
X119950620Y-68429600D01*
X120231780Y-67409600D02*
X119950620Y-67409600D01*
%TO.C,C6*%
X114007020Y-67409600D02*
X114288180Y-67409600D01*
X114007020Y-68429600D02*
X114288180Y-68429600D01*
%TO.C,R4*%
X114522980Y-60557528D02*
X114522980Y-60083012D01*
X115567980Y-60557528D02*
X115567980Y-60083012D01*
%TO.C,C2*%
X116059478Y-60460848D02*
X116059478Y-60179688D01*
X117079478Y-60460848D02*
X117079478Y-60179688D01*
%TO.C,D1*%
X129465400Y-57669800D02*
X130935400Y-57669800D01*
X130935400Y-57669800D02*
X130935400Y-55384800D01*
X129465400Y-55384800D02*
X129465400Y-57669800D01*
D15*
%TO.C,U3*%
X124157479Y-68332000D02*
X124157479Y-67292000D01*
X124157479Y-65272000D02*
X124157479Y-66312000D01*
X122697479Y-68332000D02*
X124157479Y-68332000D01*
X122697479Y-67262000D02*
X122697479Y-66342000D01*
X122697479Y-65272000D02*
X124157479Y-65272000D01*
D17*
%TO.C,R1*%
X132094500Y-69739742D02*
X132094500Y-70214258D01*
X131049500Y-69739742D02*
X131049500Y-70214258D01*
D18*
%TO.C,U5*%
X121927000Y-59005200D02*
G75*
G03*
X121927000Y-59005200I-130000J0D01*
G01*
X124217000Y-59105200D02*
X122417000Y-59105200D01*
X124217000Y-60255200D02*
X124217000Y-61055200D01*
X124217000Y-62205200D02*
X122417000Y-62205200D01*
D17*
%TO.C,R5*%
X116882142Y-67397100D02*
X117356658Y-67397100D01*
X116882142Y-68442100D02*
X117356658Y-68442100D01*
D18*
%TO.C,L1*%
X99538000Y-63484600D02*
X99538000Y-58384600D01*
X100078000Y-61694600D02*
X101598000Y-61694600D01*
X100838000Y-61694600D02*
X100838000Y-59154600D01*
X101598000Y-61694600D02*
X100838000Y-60934600D01*
X100838000Y-60934600D02*
X100078000Y-61694600D01*
X102138000Y-58394600D02*
X102138000Y-63494600D01*
X101088000Y-62454600D02*
G75*
G03*
X101088000Y-62454600I-250000J0D01*
G01*
%TO.C,U4*%
X127703480Y-67551270D02*
X129513480Y-67551270D01*
X131733480Y-67551270D02*
X133223480Y-67551270D01*
X133223480Y-67551270D02*
X133223480Y-58551270D01*
X129513480Y-58551270D02*
X127703480Y-58551270D01*
X133223480Y-58551270D02*
X131733480Y-58551270D01*
D17*
%TO.C,C7*%
X100814600Y-67245620D02*
X100814600Y-67526780D01*
X99794600Y-67245620D02*
X99794600Y-67526780D01*
D18*
%TO.C,LED1*%
X105168349Y-58696388D02*
X105168349Y-60216388D01*
X107208349Y-60216388D02*
X107208349Y-58696388D01*
X106318349Y-57956388D02*
G75*
G03*
X106318349Y-57956388I-130000J0D01*
G01*
D19*
%TO.C,CRYSTAL1*%
X112683013Y-60673004D02*
X108932114Y-60673004D01*
X108932114Y-60673004D02*
X108932114Y-57635856D01*
X108932114Y-57635856D02*
X112683013Y-57635856D01*
X112683013Y-57635856D02*
X112683013Y-60673004D01*
D16*
X112170494Y-57392235D02*
G75*
G03*
X112170494Y-57392235I0J0D01*
G01*
D17*
%TO.C,C4*%
X113011478Y-59381849D02*
X113011478Y-59100689D01*
X114031478Y-59381849D02*
X114031478Y-59100689D01*
%TO.C,L2*%
X101229279Y-65661000D02*
X100903721Y-65661000D01*
X101229279Y-64641000D02*
X100903721Y-64641000D01*
%TO.C,R9*%
X123667258Y-57757500D02*
X123192742Y-57757500D01*
X123667258Y-58802500D02*
X123192742Y-58802500D01*
%TD*%
M02*
