M48
; DRILL file {KiCad 7.0.9} date Sun Dec 31 12:54:39 2023
; FORMAT={-:-/ absolute / inch / decimal}
; #@! TF.CreationDate,2023-12-31T12:54:39+01:00
; #@! TF.GenerationSoftware,Kicad,Pcbnew,7.0.9
; #@! TF.FileFunction,Plated,1,2,PTH
FMAT,2
INCH
; #@! TA.AperFunction,Plated,PTH,ViaDrill
T1C0.0118
; #@! TA.AperFunction,Plated,PTH,ComponentDrill
T2C0.0118
; #@! TA.AperFunction,Plated,PTH,ComponentDrill
T3C0.0236
; #@! TA.AperFunction,Plated,PTH,ComponentDrill
T4C0.0256
; #@! TA.AperFunction,Plated,PTH,ComponentDrill
T5C0.0394
%
G90
G05
T1
X3.94Y-2.45
X3.945Y-2.365
X3.9791Y-2.683
X3.995Y-2.385
X4.05Y-2.555
X4.1197Y-2.385
X4.1293Y-2.6366
X4.1302Y-2.6661
X4.15Y-2.69
X4.17Y-2.42
X4.1924Y-2.5057
X4.195Y-2.445
X4.2Y-2.64
X4.205Y-2.27
X4.2261Y-2.4424
X4.25Y-2.6415
X4.2719Y-2.4424
X4.3Y-2.6415
X4.3025Y-2.4424
X4.3328Y-2.6449
X4.3909Y-2.51
X4.398Y-2.4569
X4.3983Y-2.61
X4.3983Y-2.6405
X4.42Y-2.69
X4.4563Y-2.6019
X4.46Y-2.46
X4.485Y-2.265
X4.5013Y-2.3375
X4.59Y-2.44
X4.5923Y-2.5597
X4.597Y-2.755
X4.5989Y-2.2339
X4.61Y-2.47
X4.61Y-2.588
X4.646Y-2.5231
X4.67Y-2.5494
X4.68Y-2.5952
X4.695Y-2.405
X4.6983Y-2.2333
X4.7Y-2.755
X4.72Y-2.3475
X4.8Y-2.23
X4.84Y-2.4
X4.8475Y-2.5025
X4.865Y-2.34
X4.87Y-2.4
X4.87Y-2.59
X4.9046Y-2.2254
X4.9284Y-2.2875
X4.985Y-2.72
X4.9982Y-2.4726
X5.0Y-2.51
X5.0109Y-2.2659
X5.0594Y-2.555
X5.06Y-2.69
X5.075Y-2.505
X5.13Y-2.41
X5.1869Y-2.3871
T2
X4.2551Y-2.5057
X4.2551Y-2.5451
X4.2551Y-2.5845
X4.2945Y-2.5057
X4.2945Y-2.5451
X4.2945Y-2.5845
X4.3338Y-2.5057
T4
X4.9978Y-2.3686
X4.9978Y-2.5961
T5
X3.9493Y-2.1823
X3.95Y-2.7823
X4.0493Y-2.1823
X4.05Y-2.7823
X4.065Y-2.605
X4.065Y-2.67
X4.1493Y-2.1823
X4.15Y-2.7823
X4.2493Y-2.1823
X4.25Y-2.7823
X4.3493Y-2.1823
X4.35Y-2.7823
X4.4493Y-2.1823
X4.45Y-2.7823
X4.5493Y-2.1823
X4.55Y-2.7823
X4.6493Y-2.1823
X4.65Y-2.7823
X4.7493Y-2.1823
X4.75Y-2.7823
X4.8493Y-2.1823
X4.85Y-2.7823
X4.9493Y-2.1823
X4.95Y-2.7823
X5.0493Y-2.1823
X5.05Y-2.7823
T3
G00X4.9564Y-2.3123
M15
G01X4.9997Y-2.3123
M16
G05
G00X4.9564Y-2.6524
M15
G01X4.9997Y-2.6524
M16
G05
G00X5.1269Y-2.3123
M15
G01X5.1584Y-2.3123
M16
G05
G00X5.1269Y-2.6524
M15
G01X5.1584Y-2.6524
M16
G05
T0
M30
